<svg width="390" height="72" viewBox="0 0 390 72" fill="none" xmlns="http://www.w3.org/2000/svg">
<g clip-path="url(#clip0_44_49)">
<path d="M66.1 50.9975C64.6704 51.0935 63.228 51.0199 61.7919 51.0231C60.3559 51.0263 58.9167 51.0711 57.4839 51.0071C56.5671 50.9688 56.1216 51.167 56.1761 52.2125C56.2626 53.7983 56.2562 55.3969 56.1889 56.9859C56.1504 57.9418 56.5575 58.1432 57.4134 58.1336C60.3399 58.0985 63.2664 58.0793 66.1898 58.1464C67.2892 58.172 67.5456 57.7532 67.4911 56.7493C67.4142 55.3201 67.4078 53.8814 67.4911 52.4523C67.5553 51.3748 67.2668 50.9208 66.1 50.9975ZM61.7695 55.934C60.9105 55.8828 60.4072 55.3489 60.4521 54.4761C60.4938 53.68 61.0002 53.194 61.7919 53.2004C62.6478 53.2068 63.1542 53.6928 63.2119 54.6519C63.0869 55.4064 62.667 55.9851 61.7695 55.934Z" fill="#EFEFEF"/>
<path d="M41.4506 51.0039C38.4119 51.0423 35.37 51.0359 32.3281 51.0103C31.6165 51.0039 31.2446 51.151 31.2703 51.9726C31.3216 53.6735 31.328 55.3776 31.2735 57.0817C31.2446 57.9833 31.671 58.1464 32.4371 58.1272C33.8763 58.092 35.3187 58.1176 36.7579 58.1176C36.7579 58.1208 36.7579 58.124 36.7579 58.1272C38.3061 58.1272 39.8511 58.0984 41.3993 58.14C42.2039 58.1624 42.5629 57.9162 42.5373 57.0562C42.4892 55.4064 42.4924 53.7567 42.5469 52.1069C42.5757 51.2725 42.2872 50.9943 41.4506 51.0039ZM36.822 55.9339C35.9566 55.8764 35.479 55.2817 35.5303 54.4313C35.5783 53.632 36.1521 53.1748 36.9214 53.1876C37.7837 53.2036 38.2196 53.7822 38.3382 54.54C38.1811 55.4704 37.6907 55.9947 36.822 55.9339Z" fill="#EFEFEF"/>
<path d="M78.8896 51.0072C77.3959 51.0488 75.9022 51.02 74.4053 51.02C72.8026 51.0232 71.2031 51.0456 69.6036 51.0104C68.9208 50.9944 68.658 51.2118 68.674 51.9184C68.7125 53.6737 68.7029 55.4321 68.6772 57.1874C68.6676 57.8588 68.9016 58.1337 69.6004 58.1273C72.6968 58.105 75.79 58.1018 78.8864 58.1369C79.6589 58.1465 79.9282 57.862 79.9154 57.117C79.8865 55.4129 79.8801 53.7088 79.9186 52.0079C79.9378 51.2342 79.6429 50.9848 78.8896 51.0072ZM74.2803 55.9469C73.418 55.8861 72.9116 55.3969 72.9084 54.5337C72.9052 53.728 73.4212 53.2612 74.2098 53.2165C75.0976 53.1621 75.6586 53.6641 75.681 54.5209C75.7067 55.365 75.1874 55.8765 74.2803 55.9469Z" fill="#EFEFEF"/>
<path d="M53.8363 51.0136C52.3426 51.0519 50.8457 51.0264 49.352 51.0264C47.8583 51.0264 46.3613 51.0615 44.8676 51.0136C44.0823 50.988 43.7009 51.1607 43.7361 52.0527C43.797 53.7024 43.7842 55.3553 43.7393 57.0051C43.7169 57.8012 43.9317 58.1465 44.8067 58.1369C47.8487 58.0953 50.8938 58.1081 53.9357 58.1337C54.6601 58.1401 55.0127 57.9451 54.9935 57.1522C54.955 55.4481 54.939 53.7408 54.9999 52.0399C55.0319 51.1159 54.5928 50.9912 53.8363 51.0136ZM49.4449 55.9276C48.5891 55.9468 48.0185 55.4768 47.9769 54.588C47.932 53.6608 48.5699 53.306 49.3584 53.1429C50.2014 53.2868 50.7816 53.7024 50.7559 54.604C50.7335 55.4033 50.2431 55.9117 49.4449 55.9276Z" fill="#EFEFEF"/>
<path d="M29.052 58.1401C29.7925 58.1593 30.097 57.9355 30.0746 57.1522C30.0297 55.4033 30.0361 53.6513 30.0746 51.8992C30.0906 51.1958 29.8245 51.0008 29.145 51.0072C26.0614 51.036 22.9746 51.0424 19.891 51.004C19.0288 50.9912 18.7948 51.3237 18.8204 52.1262C18.8685 53.7152 18.8941 55.3138 18.8172 56.8996C18.7659 57.9259 19.1826 58.1753 20.1186 58.1337C21.5514 58.073 22.9906 58.1177 24.4266 58.1177C24.4266 58.1209 24.4266 58.1241 24.4266 58.1241C25.9684 58.1273 27.5102 58.1017 29.052 58.1401ZM23.0451 54.5273C23.0451 53.7312 23.5612 53.2293 24.3529 53.2005C25.1991 53.1717 25.805 53.6001 25.8274 54.5081C25.8498 55.4001 25.2889 55.8318 24.4363 55.9628C23.59 55.8573 23.0483 55.3905 23.0451 54.5273Z" fill="#EFEFEF"/>
<path d="M7.42211 58.1369C8.90942 58.0953 10.3999 58.1241 11.8872 58.1241C13.3745 58.1241 14.865 58.0921 16.3524 58.1369C17.189 58.1624 17.6377 57.9802 17.6025 57.0114C17.5416 55.3681 17.5512 53.7216 17.6089 52.0782C17.6409 51.2182 17.3044 50.9944 16.4998 51.004C13.4707 51.0391 10.4384 51.0391 7.40609 51.004C6.57268 50.9944 6.29702 51.2757 6.32266 52.1038C6.37715 53.7471 6.38357 55.3937 6.32266 57.037C6.29702 57.8875 6.60153 58.1592 7.42211 58.1369ZM12.0764 53.1876C12.8456 53.2292 13.3489 53.7216 13.3649 54.5336C13.3809 55.4384 12.836 55.8541 12.0058 55.9564C11.1243 55.8477 10.5666 55.3745 10.5955 54.5113C10.6307 53.6544 11.2205 53.1397 12.0764 53.1876Z" fill="#EFEFEF"/>
<path d="M80.1077 64.1445C77.2484 60.4709 73.793 58.9618 69.2446 59.6652C67.9784 59.8602 66.6546 59.4766 65.5327 59.8187C67.8919 64.023 71.4563 65.6855 76.165 64.867C76.6298 64.7871 77.1234 64.851 77.601 64.8574C77.9152 64.8606 78.178 64.8798 78.4505 65.1548C80.0083 66.7406 81.6687 68.2305 83.1656 69.8706C84.1176 70.9161 85.1145 71.4372 87.0313 70.9289C84.5471 68.5374 82.0085 66.5871 80.1077 64.1445Z" fill="#EFEFEF"/>
<path d="M51.1212 59.6907C47.8965 59.6939 44.6719 59.6939 41.1011 59.6939C43.9507 62.6513 46.1592 65.938 50.7686 64.8861C51.5795 64.7006 52.4674 64.8509 53.3201 64.8669C53.7207 64.8765 54.0797 64.8189 54.458 65.209C56.0478 66.8364 57.782 68.3262 59.3238 69.9952C60.2565 71.0055 61.215 71.4243 62.901 70.5611C59.2949 67.1017 55.6856 63.6424 52.0796 60.1798C51.8071 59.9177 51.5346 59.6907 51.1212 59.6907Z" fill="#EFEFEF"/>
<path d="M27.2538 59.6748C23.9779 59.6748 20.702 59.6748 17.0735 59.6748C17.596 60.2215 17.878 60.4485 18.08 60.7363C20.4969 64.1828 23.7375 65.6663 27.9366 64.8574C29.6515 64.5281 30.8471 65.2763 31.9337 66.5391C33.0075 67.7892 34.3314 68.8251 35.402 70.0752C36.2802 71.1015 37.2515 71.3637 38.4759 71.0472C38.633 70.8585 38.7901 70.6731 38.9471 70.4845C35.3186 67.0379 31.6901 63.5913 28.0584 60.1448C27.8276 59.9274 27.6128 59.6748 27.2538 59.6748Z" fill="#EFEFEF"/>
<path d="M64.18 60.2886C63.7185 59.8442 63.2537 59.6715 62.6222 59.6779C59.5899 59.7035 56.5544 59.6907 53.5221 59.6907C53.4099 59.8442 53.3009 60.0008 53.1887 60.1543C54.7241 61.593 56.2659 63.0253 57.7917 64.4705C58.1795 64.8381 58.6411 64.8477 59.1283 64.8541C61.5195 64.8861 64.1961 64.2754 66.2219 65.1515C68.3118 66.0563 69.767 68.419 71.5012 70.1423C71.5396 70.1806 71.5813 70.2126 71.6133 70.2542C72.4051 71.2805 73.4148 71.2996 74.729 70.7209C71.3088 67.1273 67.7316 63.7223 64.18 60.2886Z" fill="#EFEFEF"/>
<path d="M40.0306 60.1255C39.7486 59.8538 39.4441 59.6843 39.0434 59.6843C35.8572 59.6875 32.6743 59.6843 29.2349 59.6843C33.2608 64.7391 33.4948 64.8542 39.4729 64.8574C39.9537 64.8574 40.4377 64.8989 40.9121 64.851C41.8353 64.755 42.5244 65.062 43.1655 65.7494C44.5438 67.2297 46.0536 68.5853 47.3934 70.0943C48.323 71.143 49.3391 71.3348 50.7687 70.7753C47.2813 67.1146 43.6527 63.6232 40.0306 60.1255Z" fill="#EFEFEF"/>
<path d="M18.6218 62.6194C16.5671 60.3334 14.3842 59.1696 11.2846 59.6204C9.82295 59.8347 8.30359 59.6556 6.43164 59.6556C6.98297 60.2503 7.21696 60.4613 7.39967 60.7075C9.81334 64.0166 12.9386 65.6535 17.1152 64.8606C17.9262 64.7072 18.5192 65.0716 19.0769 65.6535C20.5097 67.153 22.0676 68.5406 23.4267 70.104C24.3274 71.1367 25.305 71.3253 26.507 71.0663C26.6289 70.9065 26.7507 70.7466 26.8725 70.59C24.103 67.9491 21.1701 65.4553 18.6218 62.6194Z" fill="#EFEFEF"/>
<path d="M22.5098 31.6866C25.2633 31.8625 28.0456 32.0415 30.7381 32.601C33.2447 33.1222 33.5556 33.0934 33.5492 30.6092C33.5428 28.5662 33.546 28.5598 31.4497 28.2497C29.2412 27.9236 27.0263 27.6198 24.8177 27.2937C21.7758 26.8429 21.8271 26.8493 21.1347 29.8547C20.8302 31.1527 21.1187 31.5971 22.5098 31.6866Z" fill="#EFEFEF"/>
<path d="M89.8136 53.4497C89.2943 53.2931 89.0956 53.827 88.8936 54.1659C87.7269 56.1098 85.9254 57.2672 84.0278 58.415C81.9732 59.6555 79.7807 59.8377 77.4696 59.7162C77.3734 59.8825 77.2773 60.0487 77.1843 60.2118C78.4665 61.3755 79.7935 62.4882 81.0084 63.7159C81.6847 64.4001 82.2008 64.4097 82.906 63.8406C84.358 62.6704 85.778 61.4491 87.3262 60.4196C89.4322 59.0224 89.8745 56.8643 90.288 54.6583C90.3745 54.1755 90.3842 53.6224 89.8136 53.4497Z" fill="#EFEFEF"/>
<path d="M23.2279 26.0437C26.023 26.405 28.8053 26.8398 31.594 27.2491C33.5461 27.5368 33.5461 27.54 33.5461 25.2668C33.9276 23.9336 33.1839 23.3805 31.6742 23.1855C29.8343 22.9489 28.0328 22.4501 26.209 22.0856C22.9907 21.4462 23.042 21.4654 22.2311 24.6721C21.965 25.724 22.308 25.9222 23.2279 26.0437Z" fill="#EFEFEF"/>
<path d="M25.2762 10.6909C27.6739 11.4294 30.0555 12.2095 32.4307 13.0184C33.2833 13.3094 33.5814 13.1048 33.5654 12.1936C33.5237 9.85003 33.5494 7.5065 33.5397 5.16298C33.5397 4.80489 33.6263 4.38926 32.748 4.17505C32.748 5.3612 32.6807 6.493 32.7672 7.61521C32.8634 8.88129 32.5749 9.24577 31.2831 8.69266C29.0842 7.75269 26.8244 6.95979 24.3146 6.00064C24.3146 7.29549 24.3531 8.3058 24.3018 9.31291C24.2601 10.0642 24.5262 10.4607 25.2762 10.6909Z" fill="#EFEFEF"/>
<path d="M45.7297 17.4336C48.4447 17.6446 51.1661 17.8492 53.8554 18.252C55.3011 18.4695 56.0672 18.3576 55.6344 16.6375C56.0896 15.0517 55.3011 14.5209 53.7817 14.3994C51.7623 14.2396 49.7589 13.8975 47.7427 13.6513C44.9124 13.306 44.9669 13.322 44.6207 16.0652C44.4925 17.0787 44.7617 17.3568 45.7297 17.4336Z" fill="#EFEFEF"/>
<path d="M44.4251 26.8237C46.1849 26.7725 47.9479 26.8077 49.7076 26.8077C49.7076 26.8557 49.7076 26.9004 49.7076 26.9484C51.2014 27.0155 52.6951 27.105 54.1888 27.1402C54.8555 27.1562 55.8492 27.5399 55.6857 26.2258C55.5735 25.3178 56.3043 24.0134 54.4388 23.9047C51.7751 23.7512 49.1275 23.3675 46.467 23.1661C43.3257 22.9295 44.0597 22.3604 43.4058 25.5896C43.2263 26.4976 43.4635 26.8525 44.4251 26.8237Z" fill="#EFEFEF"/>
<path d="M58.7597 33.0679C56.7467 32.8505 56.7467 32.8441 56.7531 35.0374C57.0833 35.517 56.1056 36.7479 57.734 36.8854C60.8015 37.1411 63.8627 37.48 66.9238 37.8221C67.6899 37.9084 67.8951 37.6655 67.7027 36.9493C67.5777 36.4889 67.4559 36.0189 67.4335 35.5457C67.3758 34.3372 66.8405 33.8257 65.5712 33.7553C63.2985 33.6274 61.0291 33.3141 58.7597 33.0679Z" fill="#EFEFEF"/>
<path d="M45.1978 22.0695C48.0634 22.2453 50.9322 22.4819 53.7786 22.8656C55.2435 23.0638 56.141 23.0191 55.6922 21.4429C55.689 19.5469 55.6954 19.5022 54.0222 19.2976C51.5925 19.0034 49.1564 18.7572 46.7203 18.5366C44.3451 18.3224 44.3868 18.3544 44.0951 20.7139C43.9765 21.6699 44.156 22.0056 45.1978 22.0695Z" fill="#EFEFEF"/>
<path d="M24.6189 20.7554C26.9813 21.1711 29.3277 21.689 31.6772 22.1718C33.5524 22.5554 33.5524 22.5586 33.5524 20.4293C33.9018 19.208 33.2479 18.6229 31.8888 18.3608C30.3213 18.0602 28.7924 17.5583 27.2506 17.1234C24.1798 16.2634 24.2151 16.2634 23.6862 19.3679C23.5323 20.2439 23.7022 20.5956 24.6189 20.7554Z" fill="#EFEFEF"/>
<path d="M46.0504 12.4556C48.9641 12.7625 51.8682 13.1622 54.7755 13.5267C55.0864 13.6961 55.4166 13.9519 55.5993 13.386C55.7467 12.2254 55.7179 11.0648 55.5993 9.90425C55.6281 8.63178 55.6666 7.3561 55.6826 6.08363C55.6858 5.78949 55.7659 5.36426 55.2819 5.39623C54.83 5.42821 54.9357 5.85023 54.9261 6.13798C54.8909 7.3625 54.878 8.58701 54.8556 9.81153C54.1504 9.76038 53.4484 9.70922 52.7433 9.65807C52.4548 9.44066 52.1406 9.3959 51.7977 9.51739C51.4996 9.30638 51.1694 9.26482 50.82 9.33835C50.5283 9.13693 50.2142 9.08258 49.8744 9.19128C49.5795 8.97387 49.2494 8.9483 48.9 9.00585C48.6115 8.79803 48.2942 8.73409 47.9512 8.83959C45.1368 8.04989 45.1368 8.04989 45.0471 10.8218C45.0407 10.9817 45.0535 11.1448 45.0247 11.3014C44.8708 12.1295 45.2362 12.3693 46.0504 12.4556Z" fill="#EFEFEF"/>
<path d="M25.9301 15.7456C28.0617 16.2124 30.142 16.8934 32.2544 17.4529C32.6262 17.552 33.0622 17.8654 33.4276 17.4305C34.059 16.6792 33.3603 14.3069 32.4147 13.9968C30.3921 13.335 28.363 12.6891 26.334 12.0337C24.3307 11.3879 24.3307 11.3847 24.2473 13.6195C23.7473 14.9495 24.539 15.4419 25.9301 15.7456Z" fill="#EFEFEF"/>
<path d="M65.2441 29.2921C62.8722 28.998 60.497 28.7262 57.8717 28.4129C56.862 28.09 56.5543 28.7582 56.7755 29.7941C56.9326 30.539 56.0735 31.7571 57.5736 31.9426C60.3687 32.2879 63.1735 32.5564 65.9718 32.8538C66.2827 32.8857 66.6225 32.9785 66.8372 32.6491C67.3405 31.8722 66.1833 29.4072 65.2441 29.2921Z" fill="#EFEFEF"/>
<path d="M57.9328 14.262C59.8015 14.6777 61.6799 15.039 63.6064 15.0837C64.1385 15.0837 64.6834 15.1572 65.1994 15.0677C66.6515 14.8247 65.9399 13.5587 66.2155 12.7626C66.4271 12.1519 66.0713 11.9025 65.4655 11.9057C62.8819 11.9185 60.4138 11.2823 57.9552 10.5821C57.6219 10.4862 57.25 10.256 56.9135 10.6013C56.1923 11.343 56.9295 14.0382 57.9328 14.262Z" fill="#EFEFEF"/>
<path d="M57.8271 18.754C59.7214 19.0194 61.6254 19.2336 62.7537 19.3743C65.847 19.5182 65.8566 19.483 65.863 17.0787C65.8662 16.3625 65.7572 15.9821 64.9142 16.062C62.6608 16.2762 60.4715 15.8158 58.2726 15.381C57.8142 15.2915 57.0481 14.4922 56.7597 15.656C56.3494 17.3217 56.7757 18.607 57.8271 18.754Z" fill="#EFEFEF"/>
<path d="M57.6412 27.4088C59.808 27.6773 61.9845 27.8916 64.1577 28.1281C66.2252 28.3551 66.2156 28.3551 65.9367 26.2322C65.847 25.5544 65.9528 24.8862 64.8757 24.8414C62.5326 24.7487 60.1991 24.5121 58.122 24.3555C57.1732 24.1541 56.593 24.2947 56.7725 25.1292C56.9424 25.9221 56.0128 27.2074 57.6412 27.4088Z" fill="#EFEFEF"/>
<path d="M64.4845 20.4263C62.5132 20.4551 60.5483 20.2281 58.6154 19.8604C57.2724 19.6047 56.3588 19.6878 56.8076 21.4111C56.3973 22.9649 57.189 23.3294 58.5673 23.3709C60.4778 23.4285 62.385 23.6555 64.2922 23.8121C65.039 23.8729 65.9622 24.0551 65.6705 22.8274C65.4686 21.9674 66.6193 20.3944 64.4845 20.4263Z" fill="#EFEFEF"/>
<path d="M40.3287 25.11C38.9696 24.867 37.6169 24.5249 36.3059 24.0933C34.8795 23.6233 34.6904 24.1604 34.6135 25.4777C34.5173 27.1146 34.9725 27.8915 36.6681 28.0482C37.8766 28.1601 39.0946 28.467 40.2357 28.8795C42.2776 29.6148 42.4122 29.5732 42.268 27.2681C42.6622 25.8741 41.7423 25.3626 40.3287 25.11Z" fill="#EFEFEF"/>
<path d="M36.5014 14.2398C37.5784 14.5084 38.6138 14.9464 39.6684 15.3045C41.9282 16.0654 41.8833 16.0654 41.8577 13.6771C41.848 12.8842 41.5275 12.5581 40.8608 12.3055C39.3735 11.7428 37.9022 11.1258 36.4245 10.5343C34.6711 9.8309 34.6711 9.8309 34.6744 12.005C34.2416 13.3446 35.1488 13.9009 36.5014 14.2398Z" fill="#EFEFEF"/>
<path d="M36.3668 23.1246C37.9311 23.3931 39.4568 23.8855 41.0051 24.2564C41.3384 24.3363 41.7102 24.5825 42.0308 24.2052C42.5981 23.537 41.8833 21.1231 41.0211 20.8642C39.4953 20.407 37.9663 19.9721 36.4309 19.5437C34.684 19.0546 34.6808 19.0641 34.668 21.2031C34.2513 22.4436 35.0302 22.8976 36.3668 23.1246Z" fill="#EFEFEF"/>
<path d="M36.3219 18.5175C37.8316 18.8308 39.2933 19.3584 40.7838 19.7612C41.1108 19.8507 41.489 20.1161 41.8127 19.758C42.316 19.2017 41.7358 17.0308 40.9922 16.7623C39.3895 16.1836 37.7451 15.7104 36.1744 15.0614C34.8218 14.5051 34.4339 14.9143 34.6968 16.3019C34.3121 17.6575 34.9852 18.2394 36.3219 18.5175Z" fill="#EFEFEF"/>
<path d="M6.34496 46.6272C6.37381 47.0556 6.40265 47.4808 6.4315 47.9092C6.41548 48.5711 6.04365 49.4407 7.28414 49.3735C10.0536 49.5398 12.8231 49.5238 15.5957 49.3799C16.2432 49.5494 16.8907 49.5526 17.5382 49.3831C18.0671 49.4119 18.596 49.4695 19.1217 49.4695C27.3628 49.4759 35.6038 49.4823 43.8481 49.4727C46.9285 49.4695 50.0089 49.4151 53.0893 49.3831C53.522 49.5398 53.9547 49.543 54.3907 49.3863C57.9583 49.4151 61.5291 49.4567 65.0967 49.4695C69.5202 49.4854 73.9468 49.479 78.3703 49.4695C78.944 49.4695 79.6332 49.5494 79.7967 48.7789C79.9569 48.0307 79.3543 47.7813 78.8062 47.5416C78.662 47.4808 78.5081 47.4393 78.3606 47.3913C77.8991 47.0396 77.3766 46.835 76.8028 46.7647C74.8507 46.0868 72.8954 45.4122 70.9434 44.7344C70.8953 44.7344 70.8472 44.7344 70.7991 44.7344C70.8472 44.7344 70.8953 44.7376 70.9434 44.7344C70.8728 44.2485 71.0716 43.7145 70.7029 43.2573C70.2991 43.5035 70.1292 43.868 70.017 44.2677C68.6611 44.4595 67.4976 43.5994 66.1801 43.5803C65.8051 43.3245 65.3884 43.2414 64.9428 43.2893C65.0134 43.4556 65.0935 43.5707 65.1865 43.641C65.0935 43.5675 65.0134 43.4556 64.9428 43.2893C64.1992 43.1263 63.4555 42.9664 62.7119 42.8034C62.558 42.3014 62.4042 41.7994 62.1766 41.0609C61.8496 41.7067 61.6445 42.1096 61.4394 42.5156C59.5546 42.2726 57.6698 42.0328 55.7882 41.7898C55.7594 39.344 55.6472 36.8982 55.7337 34.4555C55.7786 33.1319 55.3523 32.6875 54.0477 32.6875C50.6339 32.6875 47.2234 32.5948 43.8097 32.5084C43.3481 32.4957 42.5499 32.7738 42.5788 31.9489C42.6012 31.2552 43.3224 31.5237 43.7488 31.5301C47.2683 31.5813 50.7878 31.6484 54.3041 31.7379C55.0638 31.7571 55.9421 31.9521 55.676 30.7372C55.4741 29.8036 56.5928 28.2146 54.4324 28.1635C51.1276 28.0868 47.8196 28.0004 44.5213 27.8022C43.3513 27.7319 42.8609 28.1027 42.7743 29.2218C42.7038 30.1489 42.3223 30.5166 41.2902 30.1585C40.0401 29.7237 38.7195 29.4839 37.4245 29.1802C34.623 28.5216 34.6775 28.528 34.6454 31.4246C34.6326 32.761 35.1679 33.231 36.4404 33.1575C38.0656 33.0648 39.5657 33.7266 41.1299 34.0175C41.4633 34.0783 41.755 34.2765 41.6428 34.6729C41.5242 35.0886 41.178 35.0086 40.8543 34.9415C39.6747 34.6953 38.5015 34.3724 37.3091 34.2285C34.6422 33.9056 34.6839 33.944 34.6518 36.7191C34.639 37.7582 34.8954 38.2122 36.0077 38.3497C37.8027 38.5703 39.5849 38.9348 41.3415 39.376C42.6493 39.7053 43.1173 39.3952 42.8673 38.0396C42.7423 37.3618 42.6076 36.7031 43.7872 36.7383C47.1433 36.8342 50.5057 36.815 53.8618 36.8086C54.5574 36.8086 55.1343 36.9557 54.9035 37.7518C54.5413 39.0115 55.8139 40.5589 54.2176 41.5692C54.1214 41.63 53.9163 41.5277 53.7624 41.4957C53.6663 41.0609 53.8426 40.4183 53.3393 40.2808C52.9803 40.1849 52.9931 40.7763 52.9066 41.0929C52.336 41.7866 51.5154 41.208 50.8615 41.4925C50.4416 41.2687 50.0057 41.2591 49.5569 41.403C47.9703 41.3071 46.3868 41.2112 44.8001 41.1152C44.6976 40.6421 44.6014 40.1657 44.1879 39.7021C44.0244 40.2296 43.8898 40.6676 43.7552 41.1056C41.0626 41.2175 38.3669 41.3263 35.6744 41.4382C35.4564 40.9778 35.2384 40.5142 34.9563 39.9227C34.6711 40.5429 34.4339 41.0513 34.1999 41.5596C33.9915 41.5277 33.7832 41.4989 33.5716 41.4669C33.562 39.2865 33.5331 37.106 33.5524 34.9287C33.5588 34.1326 33.4338 33.6722 32.4529 33.6019C29.7508 33.4069 27.055 33.0839 24.3561 32.8218C20.3558 32.4349 20.391 32.4413 20.0096 36.4665C19.9198 37.4321 20.2115 37.6207 21.1058 37.6335C23.9843 37.6783 26.8595 37.7998 29.7348 37.9181C33.1773 38.0619 33.1773 38.0715 32.6132 41.614C32.1805 41.6715 31.7477 41.7259 31.3118 41.7835C30.7669 41.6524 30.2412 41.7291 29.7283 41.9401C29.1738 41.8634 28.6289 41.8698 28.1064 42.1C27.1672 42.1703 26.3819 41.9497 25.9331 40.4183C25.7376 41.8634 25.1991 42.4197 24.2695 42.5444C23.8176 42.4932 23.3849 42.5412 22.981 42.765C22.6444 42.6499 22.3303 42.6883 22.0386 42.8993C21.7116 42.9632 21.3847 43.0272 21.0577 43.0911C20.8237 42.9888 20.6154 43.0335 20.4327 43.2062C20.1057 43.2797 19.782 43.3501 19.455 43.4236C19.1217 43.3341 18.814 43.3629 18.5575 43.6218C18.362 43.6506 18.1665 43.6794 17.9709 43.7113C17.6696 43.3597 17.3683 43.0048 16.9805 42.5508C16.7272 43.251 16.8042 44.0502 15.9836 44.2581C14.7271 44.2037 13.7078 45.2876 12.4064 45.0094C11.9544 43.7465 11.5056 42.4868 11.0537 41.2239C11.0024 41.0097 10.9511 40.7955 10.8966 40.5781C10.871 39.9067 10.7299 39.2641 10.4126 38.6662C10.3806 38.4488 10.3453 38.2346 10.3132 38.0172C10.0023 35.9166 10.262 34.171 12.7558 33.5475C13.7719 33.295 13.743 32.3582 13.6917 31.22C12.9 32.128 11.9159 32.3806 11.1274 32.9688C10.903 33.036 10.6755 33.1031 10.4511 33.1703C10.0857 32.4317 7.12387 31.0857 6.32893 31.2903C6.04685 31.3639 5.81286 31.4981 5.81286 31.7987C5.80324 33.1926 4.96023 32.5148 4.44736 32.2878C3.98258 32.08 3.62998 31.6324 3.21008 31.3159C2.25807 30.5965 1.69072 31.6292 0.953477 31.8498C0.325219 32.0385 0.716277 32.5852 0.790001 32.9337C0.966298 33.7873 1.59776 33.7489 2.34783 33.7649C3.521 33.7905 4.81919 33.685 5.68785 34.7976C5.37372 35.7248 4.55955 35.5937 3.85757 35.6161C3.08507 35.6417 2.30616 35.5681 1.53045 35.5394C0.229057 35.7728 0.334835 36.3355 1.16503 37.074C1.71636 37.8573 2.56579 37.6815 3.32547 37.6975C5.51796 37.7422 5.51796 37.7198 5.79363 39.9099C5.70388 40.7763 5.8385 41.6204 6.02121 42.4644C6.04365 42.8929 6.06609 43.3213 6.08853 43.7497C6.00839 44.7249 6.1302 45.6808 6.34496 46.6272ZM61.9811 43.0719C61.9298 43.0527 61.8817 43.0208 61.8336 42.9856C61.8785 43.0208 61.9298 43.0527 61.9811 43.0719ZM34.5877 41.7419C34.6198 41.7451 34.6486 41.7419 34.6807 41.7387C34.6486 41.7451 34.6198 41.7451 34.5877 41.7419Z" fill="#EFEFEF"/>
</g>
<path d="M126.962 42.5837C126.024 42.6358 125.009 42.74 123.915 42.8962C122.847 43.0264 121.962 43.1697 121.259 43.3259L119.228 39.8103C120.321 40.0186 121.272 40.1619 122.079 40.24C122.912 40.2921 123.668 40.3051 124.345 40.2791C124.631 40.253 124.996 40.24 125.438 40.24C125.881 40.2139 126.389 40.1749 126.962 40.1228V32.4666C126.962 31.7113 126.571 31.0994 125.79 30.6306C125.035 30.1358 123.798 29.6671 122.079 29.2244L122.978 27.5056C123.576 27.5837 124.28 27.6879 125.087 27.8181C125.894 27.9483 126.715 28.0916 127.548 28.2478C128.381 28.4041 129.175 28.5473 129.931 28.6775C130.712 28.8077 131.363 28.9119 131.884 28.99C131.806 29.2244 131.741 29.5369 131.688 29.9275C131.636 30.3181 131.584 30.7087 131.532 31.0994C131.48 31.49 131.441 31.8416 131.415 32.1541C131.389 32.4405 131.376 32.5968 131.376 32.6228V48.2869C131.376 48.8858 131.35 49.5369 131.298 50.24C131.272 50.9171 131.22 51.6072 131.142 52.3103C131.09 53.0134 131.011 53.6775 130.907 54.3025C130.829 54.9275 130.751 55.4613 130.673 55.9041L127.274 56.4509C127.222 56.1384 127.183 55.7087 127.157 55.1619C127.131 54.615 127.092 54.0291 127.04 53.4041C127.014 52.753 126.988 52.102 126.962 51.4509C126.962 50.7999 126.962 50.24 126.962 49.7712V49.6931C126.05 49.7452 125.074 49.8494 124.032 50.0056C123.017 50.1358 122.157 50.3051 121.454 50.5134L120.634 48.7166C119.905 49.7061 118.889 50.5264 117.587 51.1775C116.285 51.8025 114.813 52.115 113.173 52.115C112.027 52.115 110.946 51.9327 109.931 51.5681C108.941 51.2035 108.069 50.7218 107.313 50.1228C106.584 49.5238 105.998 48.8337 105.556 48.0525C105.139 47.2452 104.931 46.4119 104.931 45.5525C104.931 44.615 105.152 43.7426 105.595 42.9353C106.037 42.128 106.623 41.4379 107.353 40.865C108.108 40.2921 108.98 39.8494 109.97 39.5369C110.985 39.1983 112.053 39.0291 113.173 39.0291C114.449 39.0291 115.608 39.2113 116.649 39.5759C117.717 39.9145 118.616 40.3962 119.345 41.0212C120.074 41.6202 120.634 42.3103 121.024 43.0916C121.441 43.8728 121.649 44.6931 121.649 45.5525C121.649 45.8129 121.623 46.0863 121.571 46.3728C121.519 46.6593 121.428 46.9457 121.298 47.2322C122.053 47.3103 122.717 47.3624 123.29 47.3884C123.889 47.4145 124.384 47.4145 124.774 47.3884C124.983 47.3624 125.269 47.3494 125.634 47.3494C125.998 47.3233 126.441 47.3103 126.962 47.3103V42.5837ZM109.54 45.3962C109.54 45.9952 109.631 46.5551 109.813 47.0759C110.022 47.5707 110.295 48.0134 110.634 48.4041C110.998 48.7686 111.402 49.0681 111.845 49.3025C112.287 49.5108 112.769 49.615 113.29 49.615C114.332 49.615 115.217 49.2244 115.946 48.4431C116.701 47.6619 117.079 46.6462 117.079 45.3962C117.079 44.8494 116.975 44.3155 116.767 43.7947C116.584 43.2738 116.324 42.8181 115.985 42.4275C115.673 42.0369 115.282 41.7244 114.813 41.49C114.345 41.2556 113.837 41.1384 113.29 41.1384C112.274 41.1384 111.389 41.5421 110.634 42.3494C109.905 43.1306 109.54 44.1462 109.54 45.3962ZM118.759 33.1306C118.342 33.1306 117.847 33.1306 117.274 33.1306C116.728 33.1306 116.168 33.1436 115.595 33.1697C115.022 33.1697 114.475 33.1827 113.954 33.2087C113.459 33.2087 113.056 33.2087 112.743 33.2087C112.561 33.2087 112.274 33.2218 111.884 33.2478C111.519 33.2738 111.116 33.3129 110.673 33.365C110.23 33.391 109.787 33.4301 109.345 33.4822C108.902 33.5082 108.537 33.5473 108.251 33.5994L106.337 30.24C106.649 30.3181 107.079 30.3962 107.626 30.4744C108.173 30.5525 108.733 30.6306 109.306 30.7087C109.905 30.7608 110.465 30.8129 110.985 30.865C111.532 30.891 111.949 30.9041 112.235 30.9041C112.522 30.9041 112.951 30.891 113.524 30.865C114.097 30.8129 114.722 30.7608 115.399 30.7087C116.103 30.6306 116.806 30.5525 117.509 30.4744C118.238 30.3962 118.889 30.3181 119.462 30.24L118.759 33.1306ZM124.501 37.5447C123.928 37.5447 123.199 37.5447 122.313 37.5447C121.454 37.5447 120.517 37.5577 119.501 37.5837C118.485 37.6098 117.431 37.6358 116.337 37.6619C115.269 37.6879 114.228 37.7139 113.212 37.74C112.222 37.766 111.311 37.7921 110.478 37.8181C109.644 37.8442 108.967 37.8702 108.446 37.8962C108.108 37.9223 107.665 37.9613 107.118 38.0134C106.597 38.0395 106.05 38.0916 105.478 38.1697C104.905 38.2218 104.345 38.2738 103.798 38.3259C103.277 38.378 102.86 38.4301 102.548 38.4822L100.868 34.7322C101.207 34.8103 101.649 34.9014 102.196 35.0056C102.743 35.0837 103.316 35.1619 103.915 35.24C104.54 35.3181 105.139 35.3832 105.712 35.4353C106.285 35.4874 106.754 35.5134 107.118 35.5134C107.978 35.5134 109.136 35.4874 110.595 35.4353C112.079 35.3832 113.668 35.3181 115.36 35.24C117.053 35.1358 118.746 35.0056 120.438 34.8494C122.157 34.6671 123.681 34.4587 125.009 34.2244L124.501 37.5447ZM133.368 63.99C131.806 63.9639 130.191 63.9509 128.524 63.9509C126.884 63.9509 125.269 63.9639 123.681 63.99C122.092 64.016 120.569 64.0551 119.11 64.1072C117.678 64.1593 116.389 64.2244 115.243 64.3025C114.149 64.3806 113.381 64.1723 112.938 63.6775C112.522 63.2087 112.313 62.6749 112.313 62.0759V57.9744C112.313 57.4275 112.287 56.9978 112.235 56.6853C112.183 56.3468 112.04 56.0733 111.806 55.865C111.571 55.6306 111.22 55.4353 110.751 55.2791C110.282 55.1228 109.644 54.9405 108.837 54.7322L109.579 52.9353C109.97 53.0134 110.504 53.1046 111.181 53.2087C111.858 53.2869 112.561 53.378 113.29 53.4822C114.019 53.5863 114.722 53.6905 115.399 53.7947C116.103 53.8728 116.649 53.9379 117.04 53.99C116.988 54.1462 116.936 54.3546 116.884 54.615C116.858 54.8754 116.832 55.1619 116.806 55.4744C116.78 55.7608 116.754 56.0603 116.728 56.3728C116.701 56.6593 116.688 56.9197 116.688 57.1541V60.8259C116.688 61.2686 116.728 61.5291 116.806 61.6072C116.91 61.6853 117.157 61.7374 117.548 61.7634C118.511 61.7895 119.696 61.7634 121.103 61.6853C122.509 61.6072 123.967 61.503 125.478 61.3728C127.014 61.2686 128.524 61.1384 130.009 60.9822C131.493 60.8259 132.795 60.6697 133.915 60.5134L133.368 63.99ZM159.071 48.0134C159.071 48.6384 159.045 49.2764 158.993 49.9275C158.941 50.5525 158.876 51.1254 158.798 51.6462C159.84 51.8025 160.803 52.0889 161.688 52.5056C162.574 52.9223 163.329 53.4301 163.954 54.0291C164.579 54.628 165.061 55.3051 165.399 56.0603C165.764 56.7895 165.946 57.5837 165.946 58.4431C165.946 59.4327 165.712 60.3442 165.243 61.1775C164.8 62.0108 164.162 62.74 163.329 63.365C162.522 63.99 161.558 64.4718 160.438 64.8103C159.319 65.1749 158.095 65.3572 156.767 65.3572C155.438 65.3572 154.215 65.1749 153.095 64.8103C151.975 64.4718 151.011 63.99 150.204 63.365C149.423 62.74 148.798 62.0108 148.329 61.1775C147.886 60.3442 147.665 59.4327 147.665 58.4431C147.665 57.6098 147.834 56.8155 148.173 56.0603C148.511 55.3051 148.98 54.641 149.579 54.0681C150.204 53.4692 150.946 52.9613 151.806 52.5447C152.665 52.128 153.629 51.8416 154.696 51.6853C154.644 51.1124 154.605 50.5525 154.579 50.0056C154.579 49.4327 154.579 48.9379 154.579 48.5212V48.0916C152.131 48.1697 150.152 48.2348 148.642 48.2869C147.131 48.3129 145.829 48.365 144.735 48.4431C143.668 48.4952 142.691 48.5733 141.806 48.6775C140.946 48.7556 139.944 48.8728 138.798 49.0291C138.537 48.378 138.264 47.74 137.978 47.115C137.717 46.4639 137.47 45.8129 137.235 45.1619C139.006 45.3702 140.829 45.5264 142.704 45.6306C144.579 45.7348 146.272 45.7869 147.782 45.7869C150.959 45.7869 153.837 45.7608 156.415 45.7087C159.019 45.6567 161.402 45.5785 163.563 45.4744C165.751 45.3702 167.756 45.24 169.579 45.0837C171.428 44.9014 173.199 44.6801 174.892 44.4197C174.787 45.0447 174.683 45.6697 174.579 46.2947C174.501 46.8936 174.41 47.5056 174.306 48.1306C173.785 48.1046 173.16 48.0785 172.431 48.0525C171.701 48.0264 170.92 48.0004 170.087 47.9744C169.254 47.9483 168.394 47.9223 167.509 47.8962C166.623 47.8702 165.764 47.8572 164.931 47.8572C164.28 47.8572 163.446 47.8702 162.431 47.8962C161.441 47.8962 160.321 47.9223 159.071 47.9744V48.0134ZM159.735 38.6775C160.647 38.8858 161.597 39.0811 162.587 39.2634C163.603 39.4457 164.618 39.615 165.634 39.7712C166.675 39.9275 167.704 40.0707 168.72 40.2009C169.735 40.3051 170.712 40.3962 171.649 40.4744C171.233 40.9952 170.803 41.5421 170.36 42.115C169.918 42.6619 169.488 43.1957 169.071 43.7166C168.446 43.4822 167.639 43.2218 166.649 42.9353C165.686 42.6228 164.644 42.2973 163.524 41.9587C162.405 41.6202 161.259 41.2947 160.087 40.9822C158.941 40.6436 157.873 40.3311 156.884 40.0447C154.566 41.1124 152.17 42.0108 149.696 42.74C147.222 43.4431 144.657 44.0421 142.001 44.5369C141.793 44.2764 141.584 44.0291 141.376 43.7947C141.194 43.5603 141.011 43.3129 140.829 43.0525C142.782 42.6358 144.67 42.128 146.493 41.5291C148.316 40.9041 150.022 40.227 151.61 39.4978C153.225 38.7686 154.696 38.0134 156.024 37.2322C157.353 36.4509 158.511 35.6827 159.501 34.9275H156.688C155.855 34.9275 155.061 34.9535 154.306 35.0056C153.55 35.0317 152.743 35.0968 151.884 35.2009C151.05 35.2791 150.126 35.3962 149.11 35.5525C148.121 35.6827 146.988 35.852 145.712 36.0603C145.295 35.4353 144.892 34.8363 144.501 34.2634C144.11 33.6645 143.694 33.0525 143.251 32.4275C143.59 32.4796 144.045 32.5317 144.618 32.5837C145.217 32.6358 145.842 32.7009 146.493 32.7791C147.17 32.8311 147.821 32.8832 148.446 32.9353C149.071 32.9613 149.605 32.9744 150.048 32.9744C150.985 32.9744 152.118 32.9613 153.446 32.9353C154.774 32.9093 156.155 32.8572 157.587 32.7791C159.019 32.7009 160.438 32.6098 161.845 32.5056C163.277 32.3754 164.553 32.2061 165.673 31.9978C165.933 32.2582 166.168 32.5186 166.376 32.7791C166.61 33.0395 166.871 33.3129 167.157 33.5994C164.944 35.5785 162.47 37.2712 159.735 38.6775ZM161.415 58.365C161.415 57.7139 161.285 57.102 161.024 56.5291C160.79 55.9561 160.451 55.4613 160.009 55.0447C159.592 54.628 159.097 54.3025 158.524 54.0681C157.978 53.8337 157.392 53.7166 156.767 53.7166C156.142 53.7166 155.556 53.8337 155.009 54.0681C154.462 54.3025 153.967 54.628 153.524 55.0447C153.108 55.4613 152.769 55.9561 152.509 56.5291C152.274 57.102 152.157 57.7139 152.157 58.365C152.157 58.99 152.274 59.5759 152.509 60.1228C152.769 60.6436 153.108 61.0994 153.524 61.49C153.967 61.9067 154.462 62.2192 155.009 62.4275C155.556 62.6619 156.142 62.7791 156.767 62.7791C157.392 62.7791 157.978 62.6619 158.524 62.4275C159.097 62.2192 159.592 61.9067 160.009 61.49C160.451 61.0994 160.79 60.6436 161.024 60.1228C161.285 59.5759 161.415 58.99 161.415 58.365ZM162.196 28.3259C162.066 28.7947 161.923 29.2634 161.767 29.7322C161.61 30.2009 161.467 30.6697 161.337 31.1384C160.868 31.1384 160.321 31.1384 159.696 31.1384C159.071 31.1384 158.459 31.1514 157.86 31.1775C157.261 31.1775 156.701 31.1905 156.181 31.2166C155.66 31.2166 155.269 31.2166 155.009 31.2166C154.826 31.2166 154.514 31.2296 154.071 31.2556C153.655 31.2817 153.199 31.3207 152.704 31.3728C152.235 31.3988 151.767 31.4379 151.298 31.49C150.829 31.516 150.451 31.5551 150.165 31.6072C149.826 31.0082 149.488 30.4353 149.149 29.8884C148.811 29.3155 148.485 28.7296 148.173 28.1306C148.511 28.2087 148.98 28.2999 149.579 28.4041C150.204 28.4822 150.829 28.5603 151.454 28.6384C152.079 28.6905 152.665 28.7426 153.212 28.7947C153.785 28.8207 154.188 28.8337 154.423 28.8337C154.709 28.8337 155.165 28.8207 155.79 28.7947C156.415 28.7686 157.092 28.7426 157.821 28.7166C158.576 28.6645 159.332 28.6124 160.087 28.5603C160.868 28.4822 161.571 28.4041 162.196 28.3259ZM189.228 42.3103C189.931 43.0134 190.686 43.7556 191.493 44.5369C192.3 45.2921 193.134 46.0603 193.993 46.8416C194.853 47.5968 195.725 48.3389 196.61 49.0681C197.496 49.7973 198.368 50.4744 199.228 51.0994L196.024 54.3416C194.8 52.9093 193.472 51.3207 192.04 49.5759C190.634 47.8051 189.254 46.0994 187.899 44.4587C186.545 46.3858 184.957 48.2087 183.134 49.9275C181.311 51.6462 179.201 53.352 176.806 55.0447L175.478 53.7947C176.988 52.5968 178.368 51.2817 179.618 49.8494C180.894 48.391 182.027 46.8936 183.017 45.3572C184.032 43.7947 184.892 42.2322 185.595 40.6697C186.298 39.1072 186.832 37.6228 187.196 36.2166C187.353 35.7478 187.392 35.4744 187.313 35.3962C187.261 35.2921 187.209 35.1488 187.157 34.9666C187.027 34.7061 186.728 34.4327 186.259 34.1462C185.79 33.8598 185.256 33.6124 184.657 33.4041L185.478 31.9587C186.024 32.0889 186.623 32.2582 187.274 32.4666C187.951 32.6488 188.629 32.8442 189.306 33.0525C190.009 33.2608 190.686 33.4692 191.337 33.6775C192.014 33.8598 192.613 34.016 193.134 34.1462C192.561 35.6827 191.962 37.115 191.337 38.4431C190.738 39.7712 190.035 41.0603 189.228 42.3103ZM205.673 54.0681C205.673 54.8754 205.647 55.8129 205.595 56.8806C205.569 57.9223 205.517 58.977 205.438 60.0447C205.386 61.1124 205.321 62.128 205.243 63.0916C205.191 64.0551 205.126 64.8233 205.048 65.3962L201.61 65.865C201.558 65.4483 201.506 64.8754 201.454 64.1462C201.428 63.4431 201.389 62.6749 201.337 61.8416C201.311 61.0082 201.285 60.1619 201.259 59.3025C201.259 58.4431 201.259 57.6358 201.259 56.8806V32.4666C201.259 31.7113 200.894 31.0994 200.165 30.6306C199.436 30.1358 198.212 29.6671 196.493 29.2244L197.274 27.5056C197.925 27.5837 198.655 27.6879 199.462 27.8181C200.295 27.9483 201.129 28.0916 201.962 28.2478C202.795 28.4041 203.576 28.5473 204.306 28.6775C205.061 28.8077 205.686 28.9119 206.181 28.99C206.103 29.2244 206.037 29.5369 205.985 29.9275C205.933 30.3181 205.881 30.7087 205.829 31.0994C205.777 31.49 205.738 31.8416 205.712 32.1541C205.686 32.4405 205.673 32.5968 205.673 32.6228V43.6775C206.246 43.6254 206.871 43.5603 207.548 43.4822C208.251 43.4041 208.941 43.3259 209.618 43.2478C210.321 43.1697 210.985 43.0916 211.61 43.0134C212.261 42.9093 212.821 42.7921 213.29 42.6619L212.899 46.2947C212.509 46.2686 212.027 46.2556 211.454 46.2556C210.881 46.2556 210.256 46.2556 209.579 46.2556C208.928 46.2556 208.264 46.2556 207.587 46.2556C206.91 46.2556 206.272 46.2556 205.673 46.2556V54.0681ZM227.548 48.0916C229.709 47.8832 231.793 47.6619 233.798 47.4275C235.803 47.1671 237.704 46.8416 239.501 46.4509V32.4666C239.501 31.7374 239.123 31.1254 238.368 30.6306C237.639 30.1358 236.389 29.6671 234.618 29.2244L235.517 27.5056C236.142 27.5837 236.871 27.6879 237.704 27.8181C238.537 27.9483 239.371 28.0916 240.204 28.2478C241.037 28.4041 241.819 28.5473 242.548 28.6775C243.303 28.8077 243.928 28.9119 244.423 28.99C244.371 29.2244 244.319 29.5369 244.267 29.9275C244.215 30.3181 244.162 30.7087 244.11 31.0994C244.058 31.49 244.006 31.8416 243.954 32.1541C243.928 32.4405 243.915 32.5968 243.915 32.6228V42.5447C244.488 42.4926 245.113 42.4275 245.79 42.3494C246.467 42.2712 247.144 42.1931 247.821 42.115C248.524 42.0369 249.188 41.9587 249.813 41.8806C250.438 41.7764 250.985 41.6723 251.454 41.5681L250.985 45.0837C250.621 45.0577 250.152 45.0447 249.579 45.0447C249.032 45.0447 248.433 45.0447 247.782 45.0447C247.131 45.0447 246.467 45.0447 245.79 45.0447C245.113 45.0447 244.488 45.0447 243.915 45.0447V48.5994C243.915 49.1983 243.889 49.8494 243.837 50.5525C243.811 51.2296 243.759 51.9197 243.681 52.6228C243.629 53.3259 243.55 53.99 243.446 54.615C243.368 55.24 243.29 55.7738 243.212 56.2166L239.813 56.7634C239.761 56.4509 239.722 56.0082 239.696 55.4353C239.67 54.8624 239.631 54.2504 239.579 53.5994C239.553 52.9223 239.527 52.2582 239.501 51.6072C239.501 50.9301 239.501 50.3572 239.501 49.8884V48.6384C237.965 48.9249 236.389 49.1983 234.774 49.4587C233.186 49.7192 231.623 49.9535 230.087 50.1619C228.55 50.3702 227.079 50.5655 225.673 50.7478C224.267 50.9041 222.991 51.0343 221.845 51.1384C221.558 51.1645 221.142 51.2035 220.595 51.2556C220.074 51.3077 219.501 51.3728 218.876 51.4509C218.251 51.503 217.626 51.5681 217.001 51.6462C216.402 51.6983 215.881 51.7634 215.438 51.8416L213.251 48.1306C213.668 48.1827 214.188 48.2348 214.813 48.2869C215.465 48.3389 216.116 48.391 216.767 48.4431C217.444 48.4692 218.069 48.4952 218.642 48.5212C219.241 48.5473 219.683 48.5603 219.97 48.5603C220.517 48.5343 221.05 48.5082 221.571 48.4822C222.092 48.4561 222.613 48.4301 223.134 48.4041V43.1697C223.134 42.7791 223.108 42.4535 223.056 42.1931C223.004 41.9067 222.873 41.6723 222.665 41.49C222.483 41.3077 222.183 41.1514 221.767 41.0212C221.376 40.891 220.829 40.7608 220.126 40.6306L220.829 38.99C221.272 39.016 221.793 39.0551 222.392 39.1072C223.017 39.1593 223.655 39.2244 224.306 39.3025C224.957 39.3806 225.595 39.4718 226.22 39.5759C226.871 39.6541 227.444 39.7452 227.938 39.8494C227.886 40.0837 227.834 40.3702 227.782 40.7087C227.756 41.0473 227.717 41.3858 227.665 41.7244C227.639 42.0629 227.613 42.3754 227.587 42.6619C227.561 42.9223 227.548 43.0916 227.548 43.1697V48.0916ZM230.556 45.6697C230.66 44.9666 230.777 44.1593 230.907 43.2478C231.037 42.3103 231.155 41.3598 231.259 40.3962C231.363 39.4067 231.454 38.4301 231.532 37.4666C231.61 36.503 231.649 35.6436 231.649 34.8884C230.894 34.8884 230.178 34.8884 229.501 34.8884C228.85 34.8884 228.199 34.9014 227.548 34.9275C226.897 34.9275 226.233 34.9535 225.556 35.0056C224.879 35.0317 224.149 35.0837 223.368 35.1619C222.613 35.2921 221.688 35.4223 220.595 35.5525C219.501 35.6827 218.485 35.8259 217.548 35.9822L215.517 32.4275C216.037 32.4796 216.597 32.5317 217.196 32.5837C217.795 32.6098 218.394 32.6488 218.993 32.7009C219.618 32.753 220.204 32.7921 220.751 32.8181C221.298 32.8442 221.78 32.8572 222.196 32.8572C224.201 32.8572 226.35 32.7791 228.642 32.6228C230.959 32.4666 233.251 32.2061 235.517 31.8416L236.767 32.9744C236.402 35.1358 236.011 37.2322 235.595 39.2634C235.204 41.2686 234.592 43.2869 233.759 45.3181L230.556 45.6697ZM246.259 64.2634C244.644 64.1853 242.951 64.1202 241.181 64.0681C239.436 64.0421 237.717 64.0291 236.024 64.0291C234.332 64.0551 232.717 64.0811 231.181 64.1072C229.644 64.1593 228.316 64.2244 227.196 64.3025C226.129 64.3806 225.36 64.1723 224.892 63.6775C224.449 63.2087 224.228 62.6749 224.228 62.0759V57.8181C224.228 57.2712 224.201 56.8416 224.149 56.5291C224.097 56.1905 223.954 55.9171 223.72 55.7087C223.511 55.4744 223.173 55.2791 222.704 55.1228C222.261 54.9666 221.636 54.7843 220.829 54.5759L221.649 52.7791C222.014 52.8311 222.522 52.9093 223.173 53.0134C223.824 53.0916 224.514 53.1827 225.243 53.2869C225.972 53.391 226.662 53.4952 227.313 53.5994C227.991 53.7035 228.511 53.7817 228.876 53.8337C228.824 54.1462 228.759 54.641 228.681 55.3181C228.629 55.9692 228.603 56.5291 228.603 56.9978V60.8259C228.603 61.2686 228.655 61.5291 228.759 61.6072C228.863 61.6853 229.136 61.7374 229.579 61.7634C230.543 61.7895 231.767 61.7764 233.251 61.7244C234.761 61.6983 236.337 61.6332 237.978 61.5291C239.618 61.4249 241.22 61.3077 242.782 61.1775C244.371 61.0473 245.712 60.891 246.806 60.7087L246.259 64.2634ZM269.032 36.0212C268.121 35.9692 267.079 35.9952 265.907 36.0994C264.761 36.1775 263.707 36.2556 262.743 36.3337C262.457 36.3598 262.066 36.3988 261.571 36.4509C261.103 36.477 260.595 36.516 260.048 36.5681C259.501 36.5942 258.941 36.6462 258.368 36.7244C257.821 36.7764 257.313 36.8416 256.845 36.9197L254.618 33.365C254.931 33.4171 255.36 33.4822 255.907 33.5603C256.48 33.6384 257.079 33.7166 257.704 33.7947C258.355 33.8468 258.98 33.8988 259.579 33.9509C260.204 34.003 260.725 34.0291 261.142 34.0291C261.845 34.0291 262.717 34.016 263.759 33.99C264.826 33.9639 265.946 33.9379 267.118 33.9119C268.316 33.8598 269.527 33.7947 270.751 33.7166C272.001 33.6384 273.16 33.5473 274.228 33.4431C274.175 33.5994 274.11 33.8207 274.032 34.1072C273.98 34.3936 273.915 34.7061 273.837 35.0447C273.759 35.3572 273.681 35.6697 273.603 35.9822C273.55 36.2686 273.511 36.49 273.485 36.6462L272.86 42.4275C273.069 42.4275 273.277 42.4275 273.485 42.4275C273.72 42.4014 273.954 42.3754 274.188 42.3494L273.798 45.2009C270.933 45.0707 268.55 45.0447 266.649 45.1228C264.774 45.1749 263.16 45.253 261.806 45.3572C261.806 45.5655 261.793 45.7478 261.767 45.9041C261.741 46.0343 261.728 46.2035 261.728 46.4119V51.6853C261.728 52.3624 261.936 52.7009 262.353 52.7009C263.264 52.6228 264.371 52.5056 265.673 52.3494C266.975 52.1671 268.381 51.9457 269.892 51.6853C271.402 51.3988 272.951 51.0733 274.54 50.7087C276.155 50.3442 277.73 49.9275 279.267 49.4587V32.4666C279.267 31.7113 278.876 31.0994 278.095 30.6306C277.34 30.1358 276.103 29.6671 274.384 29.2244L275.282 27.5056C275.881 27.5837 276.584 27.6879 277.392 27.8181C278.199 27.9483 279.019 28.0916 279.853 28.2478C280.686 28.4041 281.48 28.5473 282.235 28.6775C283.017 28.8077 283.655 28.9119 284.149 28.99C284.097 29.2244 284.045 29.5369 283.993 29.9275C283.941 30.3181 283.889 30.7087 283.837 31.0994C283.785 31.49 283.746 31.8416 283.72 32.1541C283.694 32.4405 283.681 32.5968 283.681 32.6228V54.0681C283.681 54.8754 283.655 55.8129 283.603 56.8806C283.576 57.9223 283.524 58.977 283.446 60.0447C283.394 61.1124 283.316 62.128 283.212 63.0916C283.134 64.0551 283.043 64.8233 282.938 65.3962L279.618 65.865C279.566 65.4483 279.514 64.8754 279.462 64.1462C279.436 63.4431 279.397 62.6749 279.345 61.8416C279.319 61.0082 279.293 60.1619 279.267 59.3025C279.267 58.4431 279.267 57.6358 279.267 56.8806V51.4119C277.938 51.8546 276.454 52.3103 274.813 52.7791C273.199 53.2218 271.584 53.6384 269.97 54.0291C268.355 54.4197 266.819 54.7582 265.36 55.0447C263.902 55.3311 262.665 55.5134 261.649 55.5916C260.087 55.7478 258.98 55.5395 258.329 54.9666C257.678 54.3676 257.353 53.4301 257.353 52.1541V46.9587C257.353 46.516 257.326 46.1514 257.274 45.865C257.222 45.5785 257.092 45.3311 256.884 45.1228C256.701 44.9145 256.415 44.7322 256.024 44.5759C255.66 44.4197 255.165 44.2504 254.54 44.0681L255.399 42.5837C257.769 42.8181 260.074 42.9483 262.313 42.9744C264.579 42.9744 266.728 42.9093 268.759 42.7791L269.032 36.0212ZM309.579 37.5447C310.699 38.2478 311.897 38.9639 313.173 39.6931C314.475 40.4223 315.764 41.1254 317.04 41.8025C318.342 42.4535 319.579 43.0525 320.751 43.5994C321.949 44.1462 323.004 44.5889 323.915 44.9275L320.751 48.2478C319.84 47.5447 318.85 46.8155 317.782 46.0603C316.715 45.3051 315.621 44.5499 314.501 43.7947C313.381 43.0134 312.248 42.2582 311.103 41.5291C309.983 40.7999 308.915 40.1228 307.899 39.4978C305.946 41.6853 303.733 43.5994 301.259 45.24C298.785 46.8806 296.22 48.3389 293.563 49.615L292.509 48.0916C295.79 46.1905 298.642 44.0942 301.063 41.8025C303.511 39.4848 305.412 37.0238 306.767 34.4197C306.871 34.2113 306.91 34.003 306.884 33.7947C306.884 33.5863 306.845 33.4301 306.767 33.3259C306.662 33.2218 306.48 33.1046 306.22 32.9744C305.985 32.8181 305.725 32.6749 305.438 32.5447C305.178 32.3884 304.918 32.2582 304.657 32.1541C304.423 32.0499 304.254 31.9848 304.149 31.9587L305.399 30.5525C305.894 30.6827 306.467 30.852 307.118 31.0603C307.769 31.2426 308.42 31.4379 309.071 31.6462C309.748 31.8546 310.399 32.0629 311.024 32.2712C311.649 32.4535 312.196 32.6228 312.665 32.7791C312.222 33.6645 311.741 34.4978 311.22 35.2791C310.725 36.0603 310.178 36.8155 309.579 37.5447ZM311.298 56.8025C312.261 56.7504 313.121 56.7113 313.876 56.6853C314.657 56.6593 315.308 56.6332 315.829 56.6072C316.688 56.5811 317.587 56.5291 318.524 56.4509C319.462 56.3728 320.386 56.2947 321.298 56.2166C322.235 56.1124 323.134 56.0082 323.993 55.9041C324.853 55.7999 325.634 55.7087 326.337 55.6306L325.79 59.2634C325.269 59.2374 324.644 59.2113 323.915 59.1853C323.212 59.1593 322.431 59.1462 321.571 59.1462C320.738 59.1202 319.866 59.1072 318.954 59.1072C318.069 59.0811 317.196 59.0681 316.337 59.0681C315.634 59.0681 314.761 59.0811 313.72 59.1072C312.704 59.1332 311.597 59.1593 310.399 59.1853C309.228 59.2113 308.017 59.2504 306.767 59.3025C305.517 59.3546 304.332 59.4067 303.212 59.4587C302.092 59.4848 301.076 59.5238 300.165 59.5759C299.254 59.602 298.55 59.628 298.056 59.6541C297.066 59.7061 295.972 59.7973 294.774 59.9275C293.576 60.0317 292.496 60.1619 291.532 60.3181L290.087 56.2947C291.233 56.4509 292.535 56.5942 293.993 56.7244C295.451 56.8285 296.793 56.9067 298.017 56.9587C298.954 57.0108 300.217 57.0369 301.806 57.0369C303.42 57.0108 305.087 56.9718 306.806 56.9197V50.8259C306.806 50.4613 306.767 50.1619 306.688 49.9275C306.61 49.6671 306.454 49.4587 306.22 49.3025C305.985 49.1462 305.634 49.016 305.165 48.9119C304.722 48.8077 304.136 48.7166 303.407 48.6384L304.071 46.9587C304.514 46.9587 305.061 46.9718 305.712 46.9978C306.389 47.0238 307.079 47.0629 307.782 47.115C308.511 47.141 309.215 47.1931 309.892 47.2712C310.569 47.3233 311.142 47.3884 311.61 47.4666C311.558 47.7009 311.506 48.0004 311.454 48.365C311.428 48.7035 311.402 49.0551 311.376 49.4197C311.35 49.7582 311.324 50.0577 311.298 50.3181C311.298 50.5785 311.298 50.7478 311.298 50.8259V56.8025Z" fill="#EFEFEF"/>
<path d="M118.283 8.09375C118.427 8.08073 118.57 8.06771 118.713 8.05469C118.856 8.04167 118.98 8.02865 119.084 8.01562L118.83 9.08984C118.296 9.05078 117.652 9.02474 116.897 9.01172C116.155 8.9987 115.38 8.99219 114.573 8.99219C113.765 8.99219 112.971 8.9987 112.19 9.01172C111.421 9.02474 110.751 9.04427 110.178 9.07031C110.152 9.17448 110.132 9.27865 110.119 9.38281C110.106 9.47396 110.087 9.57161 110.061 9.67578L109.299 9.79297C109.234 9.53255 109.182 9.25911 109.143 8.97266C109.104 8.67318 109.071 8.35417 109.045 8.01562L108.713 4.73438C108.687 4.48698 108.655 4.28516 108.615 4.12891C108.576 3.97266 108.511 3.84896 108.42 3.75781C108.329 3.65365 108.199 3.56901 108.03 3.50391C107.86 3.42578 107.639 3.34766 107.365 3.26953L107.58 2.78125C108.414 2.88542 109.312 2.95703 110.276 2.99609C111.252 3.02214 112.235 3.02865 113.225 3.01562C114.227 2.98958 115.224 2.95052 116.213 2.89844C117.203 2.84635 118.14 2.78125 119.026 2.70312C118.974 3.06771 118.908 3.48438 118.83 3.95312C118.765 4.42188 118.694 4.90365 118.615 5.39844C118.55 5.89323 118.485 6.375 118.42 6.84375C118.368 7.3125 118.323 7.72917 118.283 8.09375ZM117.424 3.71875C117.007 3.70573 116.454 3.69922 115.764 3.69922C115.087 3.6862 114.384 3.6862 113.655 3.69922C112.925 3.71224 112.229 3.73177 111.565 3.75781C110.914 3.77083 110.406 3.79036 110.041 3.81641L110.256 7.68359C110.282 7.91797 110.276 8.13932 110.237 8.34766C110.744 8.34766 111.291 8.34766 111.877 8.34766C112.476 8.33464 113.082 8.32161 113.694 8.30859C114.319 8.29557 114.931 8.27604 115.53 8.25C116.142 8.22396 116.714 8.19792 117.248 8.17188L117.424 3.71875ZM114.963 13.4453C114.963 13.9141 114.937 14.4544 114.885 15.0664C114.833 15.6654 114.768 16.1992 114.69 16.668L113.791 16.7852C113.765 16.5508 113.739 16.2969 113.713 16.0234C113.7 15.737 113.681 15.457 113.655 15.1836C113.642 14.9102 113.628 14.6497 113.615 14.4023C113.615 14.1419 113.615 13.9206 113.615 13.7383V12.332C113.03 12.3451 112.45 12.3646 111.877 12.3906C111.304 12.4036 110.764 12.4167 110.256 12.4297C109.748 12.4427 109.293 12.4622 108.889 12.4883C108.485 12.5013 108.173 12.5143 107.951 12.5273C107.444 12.5534 106.936 12.5924 106.428 12.6445C105.933 12.6836 105.445 12.7357 104.963 12.8008L104.455 11.4336C105.067 11.4987 105.647 11.5508 106.194 11.5898C106.74 11.6159 107.32 11.6419 107.932 11.668C108.257 11.681 108.687 11.6875 109.221 11.6875C109.755 11.6875 110.334 11.6875 110.959 11.6875C111.597 11.6745 112.255 11.6615 112.932 11.6484C113.622 11.6224 114.28 11.6029 114.905 11.5898C115.543 11.5768 116.122 11.5638 116.643 11.5508C117.177 11.5247 117.606 11.5052 117.932 11.4922C118.83 11.4531 119.683 11.401 120.49 11.3359C121.298 11.2708 122.053 11.1862 122.756 11.082L122.561 12.3516C122.04 12.3255 121.395 12.306 120.627 12.293C119.872 12.2799 119.052 12.2669 118.166 12.2539C117.802 12.2539 117.339 12.2604 116.78 12.2734C116.233 12.2734 115.627 12.2865 114.963 12.3125V13.4453ZM120.139 19.6953C119.319 19.6562 118.446 19.6302 117.522 19.6172C116.597 19.6042 115.679 19.5977 114.768 19.5977C113.869 19.6107 113.01 19.6302 112.19 19.6562C111.382 19.6823 110.686 19.7148 110.1 19.7539C109.735 19.7799 109.475 19.7018 109.319 19.5195C109.162 19.3503 109.084 19.1354 109.084 18.875V16.668C109.084 16.3685 109.065 16.1276 109.026 15.9453C109 15.75 108.928 15.5938 108.811 15.4766C108.694 15.3464 108.524 15.2422 108.303 15.1641C108.082 15.0729 107.776 14.9753 107.385 14.8711L107.6 14.3633C107.795 14.3893 108.017 14.4219 108.264 14.4609C108.524 14.487 108.785 14.5195 109.045 14.5586C109.306 14.5846 109.566 14.6172 109.826 14.6562C110.087 14.6823 110.315 14.7083 110.51 14.7344C110.484 14.8906 110.458 15.112 110.432 15.3984C110.419 15.6719 110.412 15.9323 110.412 16.1797V18.25C110.412 18.5365 110.477 18.7188 110.608 18.7969C110.738 18.888 110.992 18.9401 111.369 18.9531C111.864 18.9661 112.502 18.9661 113.283 18.9531C114.078 18.9401 114.905 18.9141 115.764 18.875C116.623 18.8359 117.463 18.7839 118.283 18.7188C119.104 18.6536 119.8 18.5755 120.373 18.4844L120.139 19.6953ZM129.573 13.0156C129.104 12.9635 128.661 12.8529 128.244 12.6836C127.841 12.5013 127.483 12.2799 127.17 12.0195C126.871 11.7461 126.636 11.4466 126.467 11.1211C126.298 10.7826 126.213 10.4245 126.213 10.0469C126.213 9.61719 126.317 9.22005 126.526 8.85547C126.734 8.49089 127.014 8.17839 127.365 7.91797C127.73 7.64453 128.153 7.4362 128.635 7.29297C129.117 7.14974 129.631 7.07812 130.178 7.07812C130.764 7.07812 131.298 7.16276 131.78 7.33203C132.261 7.48828 132.678 7.70312 133.03 7.97656C133.381 8.25 133.655 8.56901 133.85 8.93359C134.045 9.28516 134.143 9.65625 134.143 10.0469C134.143 10.4245 134.058 10.7826 133.889 11.1211C133.733 11.4466 133.511 11.7396 133.225 12C132.938 12.2604 132.593 12.4818 132.19 12.6641C131.786 12.8333 131.35 12.944 130.881 12.9961V15.1641C132.027 15.0208 133.121 14.8646 134.162 14.6953C135.217 14.526 136.213 14.3307 137.151 14.1094V3.875C137.151 3.43229 136.949 3.08073 136.545 2.82031C136.155 2.54688 135.543 2.3125 134.709 2.11719L134.924 1.58984C135.588 1.66797 136.246 1.77214 136.897 1.90234C137.561 2.01953 138.153 2.13021 138.674 2.23438C138.622 2.46875 138.57 2.73568 138.518 3.03516C138.479 3.33464 138.459 3.61458 138.459 3.875V10.3984C139.006 10.3724 139.605 10.3203 140.256 10.2422C140.907 10.1641 141.565 10.0729 142.229 9.96875L142.053 11.2188C141.793 11.2057 141.506 11.1992 141.194 11.1992C140.894 11.1992 140.582 11.1992 140.256 11.1992C139.944 11.1992 139.631 11.2057 139.319 11.2188C139.006 11.2188 138.72 11.2188 138.459 11.2188V14.8125C138.459 15.2161 138.446 15.6784 138.42 16.1992C138.407 16.7201 138.388 17.2409 138.362 17.7617C138.336 18.2826 138.303 18.7773 138.264 19.2461C138.225 19.7148 138.179 20.099 138.127 20.3984L137.307 20.4961C137.281 20.2747 137.255 19.9948 137.229 19.6562C137.216 19.3307 137.203 18.9727 137.19 18.582C137.177 18.2044 137.164 17.8138 137.151 17.4102C137.151 17.0065 137.151 16.6159 137.151 16.2383V14.6562C136.317 14.8516 135.464 15.0339 134.592 15.2031C133.733 15.3724 132.88 15.5286 132.033 15.6719C131.2 15.8021 130.386 15.9193 129.592 16.0234C128.811 16.1276 128.082 16.2057 127.405 16.2578C127.261 16.2708 127.066 16.2904 126.819 16.3164C126.584 16.3294 126.33 16.349 126.057 16.375C125.783 16.401 125.51 16.4271 125.237 16.4531C124.963 16.4792 124.716 16.5117 124.494 16.5508L123.733 15.3008C124.162 15.3659 124.631 15.418 125.139 15.457C125.647 15.4961 126.115 15.5026 126.545 15.4766C127.053 15.4505 127.561 15.4245 128.069 15.3984C128.576 15.3724 129.078 15.3398 129.573 15.3008V13.0156ZM127.619 9.98828C127.619 10.2878 127.684 10.5742 127.815 10.8477C127.945 11.1211 128.127 11.3685 128.362 11.5898C128.596 11.7982 128.869 11.9674 129.182 12.0977C129.494 12.2148 129.833 12.2734 130.198 12.2734C130.549 12.2734 130.875 12.2148 131.174 12.0977C131.487 11.9674 131.753 11.8047 131.975 11.6094C132.209 11.401 132.392 11.1602 132.522 10.8867C132.652 10.6003 132.717 10.3008 132.717 9.98828C132.717 9.70182 132.652 9.42188 132.522 9.14844C132.392 8.875 132.216 8.63411 131.994 8.42578C131.773 8.20443 131.506 8.02865 131.194 7.89844C130.894 7.76823 130.562 7.70312 130.198 7.70312C129.833 7.70312 129.494 7.76172 129.182 7.87891C128.869 7.99609 128.596 8.15885 128.362 8.36719C128.127 8.57552 127.945 8.81641 127.815 9.08984C127.684 9.36328 127.619 9.66276 127.619 9.98828ZM132.502 3.91406C132.046 3.90104 131.565 3.90755 131.057 3.93359C130.562 3.94661 130.139 3.95312 129.787 3.95312C129.696 3.95312 129.573 3.95964 129.416 3.97266C129.273 3.97266 129.11 3.97917 128.928 3.99219C128.746 3.99219 128.557 4.00521 128.362 4.03125C128.166 4.04427 127.984 4.0638 127.815 4.08984L127.229 2.9375C127.541 3.0026 127.899 3.06771 128.303 3.13281C128.72 3.19792 129.13 3.23047 129.533 3.23047C129.859 3.23047 130.321 3.21094 130.92 3.17188C131.519 3.11979 132.131 3.05469 132.756 2.97656L132.502 3.91406ZM135.432 6.00391C135.132 6.00391 134.768 6.00391 134.338 6.00391C133.908 6.00391 133.446 6.01042 132.951 6.02344C132.457 6.03646 131.942 6.04948 131.408 6.0625C130.888 6.07552 130.386 6.09505 129.905 6.12109C129.423 6.13411 128.967 6.14714 128.537 6.16016C128.121 6.17318 127.776 6.1862 127.502 6.19922C127.346 6.21224 127.151 6.22526 126.916 6.23828C126.682 6.2513 126.441 6.27083 126.194 6.29688C125.946 6.3099 125.705 6.32943 125.471 6.35547C125.237 6.38151 125.041 6.40755 124.885 6.43359L124.28 5.20312C124.657 5.28125 125.093 5.33984 125.588 5.37891C126.096 5.41797 126.539 5.4375 126.916 5.4375C127.216 5.4375 127.58 5.43099 128.01 5.41797C128.453 5.40495 128.928 5.39193 129.436 5.37891C129.957 5.36589 130.497 5.34635 131.057 5.32031C131.617 5.29427 132.164 5.26172 132.698 5.22266C133.244 5.18359 133.765 5.13802 134.26 5.08594C134.768 5.03385 135.224 4.96875 135.627 4.89062L135.432 6.00391ZM149.026 10.3203C149.312 10.6328 149.618 10.9583 149.944 11.2969C150.282 11.6224 150.621 11.9479 150.959 12.2734C151.311 12.5859 151.649 12.8854 151.975 13.1719C152.3 13.4453 152.613 13.6797 152.912 13.875L151.838 14.832C151.291 14.168 150.764 13.5104 150.256 12.8594C149.748 12.2083 149.208 11.5312 148.635 10.8281C147.906 11.8177 147.105 12.7161 146.233 13.5234C145.36 14.3307 144.436 15.0599 143.459 15.7109L143.049 15.3594C143.869 14.7474 144.631 14.0833 145.334 13.3672C146.037 12.638 146.662 11.8763 147.209 11.082C147.769 10.2878 148.251 9.47396 148.655 8.64062C149.071 7.80729 149.403 6.97396 149.651 6.14062C149.455 6.14062 149.24 6.14714 149.006 6.16016C148.785 6.16016 148.55 6.16667 148.303 6.17969C148.069 6.17969 147.834 6.1862 147.6 6.19922C147.378 6.19922 147.177 6.20573 146.994 6.21875C146.851 6.23177 146.675 6.2513 146.467 6.27734C146.259 6.29036 146.037 6.3099 145.803 6.33594C145.582 6.36198 145.354 6.39453 145.119 6.43359C144.885 6.45964 144.664 6.49219 144.455 6.53125L143.713 5.32031C144.078 5.38542 144.468 5.4375 144.885 5.47656C145.315 5.5026 145.744 5.51562 146.174 5.51562C147.138 5.52865 147.99 5.5026 148.733 5.4375C149.475 5.35938 150.224 5.22917 150.979 5.04688L151.428 5.47656C151.142 6.375 150.796 7.22135 150.393 8.01562C149.989 8.8099 149.533 9.57812 149.026 10.3203ZM154.865 9.85156C155.139 9.85156 155.38 9.85156 155.588 9.85156C155.796 9.83854 155.998 9.83203 156.194 9.83203C156.402 9.81901 156.61 9.79948 156.819 9.77344C157.027 9.7474 157.261 9.71484 157.522 9.67578V3.875C157.522 3.44531 157.359 3.10026 157.033 2.83984C156.721 2.56641 156.155 2.32552 155.334 2.11719L155.549 1.58984C156.2 1.68099 156.812 1.78516 157.385 1.90234C157.958 2.01953 158.498 2.13021 159.006 2.23438C158.954 2.46875 158.908 2.73568 158.869 3.03516C158.83 3.33464 158.811 3.61458 158.811 3.875V14.8125C158.811 15.2161 158.798 15.6719 158.772 16.1797C158.759 16.6875 158.739 17.2018 158.713 17.7227C158.687 18.2305 158.655 18.7188 158.615 19.1875C158.576 19.6693 158.531 20.0729 158.479 20.3984L157.678 20.4961C157.652 20.2487 157.632 19.9557 157.619 19.6172C157.606 19.2786 157.587 18.9206 157.561 18.543C157.548 18.1654 157.535 17.7812 157.522 17.3906C157.522 17 157.522 16.6159 157.522 16.2383V10.5352C157.248 10.5352 157.007 10.5417 156.799 10.5547C156.591 10.5677 156.382 10.5807 156.174 10.5938C155.979 10.6068 155.777 10.6198 155.569 10.6328C155.36 10.6458 155.126 10.6589 154.865 10.6719V14.1094C154.865 14.513 154.852 14.9688 154.826 15.4766C154.813 15.9844 154.787 16.4987 154.748 17.0195C154.722 17.5273 154.69 18.0156 154.651 18.4844C154.612 18.9661 154.566 19.3698 154.514 19.6953L153.752 19.793C153.726 19.5456 153.707 19.2526 153.694 18.9141C153.681 18.5885 153.668 18.237 153.655 17.8594C153.642 17.4818 153.628 17.0977 153.615 16.707C153.615 16.3034 153.615 15.9128 153.615 15.5352V4.71484C153.615 4.28516 153.472 3.9401 153.186 3.67969C152.912 3.41927 152.392 3.19141 151.623 2.99609L151.858 2.46875C152.496 2.54688 153.062 2.63151 153.557 2.72266C154.052 2.8138 154.559 2.92448 155.08 3.05469C155.015 3.28906 154.963 3.5625 154.924 3.875C154.885 4.17448 154.865 4.45443 154.865 4.71484V9.85156ZM169.338 8.99219C170.002 9.48698 170.699 9.94271 171.428 10.3594C172.157 10.763 172.938 11.1341 173.772 11.4727L172.698 12.4688C172.346 12.1953 172.014 11.9414 171.701 11.707C171.389 11.4596 171.076 11.2188 170.764 10.9844C170.464 10.737 170.152 10.4896 169.826 10.2422C169.514 9.99479 169.182 9.73438 168.83 9.46094C167.867 10.3464 166.851 11.1016 165.783 11.7266C164.729 12.3385 163.7 12.8529 162.698 13.2695L162.287 12.8594C163.876 12.1172 165.328 11.1797 166.643 10.0469C167.971 8.91406 169.123 7.59245 170.1 6.08203C169.905 6.08203 169.664 6.08854 169.377 6.10156C169.104 6.11458 168.817 6.13411 168.518 6.16016C168.218 6.17318 167.925 6.1862 167.639 6.19922C167.365 6.21224 167.138 6.21875 166.955 6.21875C166.812 6.21875 166.63 6.23177 166.408 6.25781C166.187 6.27083 165.946 6.29036 165.686 6.31641C165.438 6.32943 165.184 6.35547 164.924 6.39453C164.664 6.42057 164.423 6.44661 164.201 6.47266L163.44 5.30078C163.778 5.36589 164.201 5.41797 164.709 5.45703C165.217 5.48307 165.686 5.49609 166.115 5.49609C167.092 5.50911 168.075 5.48307 169.065 5.41797C170.054 5.33984 170.914 5.20964 171.643 5.02734L172.112 5.47656C171.317 6.81771 170.393 7.98958 169.338 8.99219ZM173.596 13.9336C174.104 13.9727 174.573 14.0833 175.002 14.2656C175.445 14.4479 175.823 14.6823 176.135 14.9688C176.461 15.2552 176.708 15.5807 176.877 15.9453C177.059 16.3099 177.151 16.707 177.151 17.1367C177.151 17.5924 177.046 18.0156 176.838 18.4062C176.63 18.7969 176.337 19.1289 175.959 19.4023C175.595 19.6888 175.165 19.9102 174.67 20.0664C174.175 20.2357 173.635 20.3203 173.049 20.3203C172.463 20.3203 171.923 20.2357 171.428 20.0664C170.933 19.9102 170.503 19.6888 170.139 19.4023C169.774 19.1289 169.488 18.7969 169.28 18.4062C169.071 18.0156 168.967 17.5924 168.967 17.1367C168.967 16.707 169.058 16.3034 169.24 15.9258C169.436 15.5352 169.696 15.1966 170.022 14.9102C170.36 14.6237 170.757 14.3958 171.213 14.2266C171.669 14.0443 172.164 13.9401 172.698 13.9141C172.671 13.7708 172.6 13.6536 172.483 13.5625C172.365 13.4583 172.157 13.3672 171.858 13.2891L172.053 12.918C172.352 12.9831 172.645 13.0417 172.932 13.0938C173.218 13.1328 173.518 13.1849 173.83 13.25C173.739 13.4453 173.661 13.6732 173.596 13.9336ZM175.744 17.0391C175.744 16.6875 175.673 16.362 175.53 16.0625C175.386 15.75 175.191 15.4831 174.944 15.2617C174.709 15.0273 174.423 14.8451 174.084 14.7148C173.759 14.5846 173.407 14.5195 173.03 14.5195C172.652 14.5195 172.3 14.5846 171.975 14.7148C171.649 14.8451 171.363 15.0273 171.115 15.2617C170.868 15.4831 170.673 15.75 170.53 16.0625C170.399 16.362 170.334 16.6875 170.334 17.0391C170.334 17.3906 170.399 17.7161 170.53 18.0156C170.673 18.3151 170.868 18.5755 171.115 18.7969C171.363 19.0182 171.649 19.194 171.975 19.3242C172.3 19.4544 172.652 19.5195 173.03 19.5195C173.42 19.5195 173.778 19.4544 174.104 19.3242C174.429 19.194 174.716 19.0182 174.963 18.7969C175.211 18.5755 175.399 18.3151 175.53 18.0156C175.673 17.7161 175.744 17.3906 175.744 17.0391ZM170.412 3.71875C169.957 3.70573 169.501 3.71224 169.045 3.73828C168.602 3.7513 168.205 3.75781 167.854 3.75781C167.763 3.75781 167.639 3.76432 167.483 3.77734C167.339 3.77734 167.177 3.78385 166.994 3.79688C166.812 3.79688 166.623 3.8099 166.428 3.83594C166.233 3.84896 166.05 3.86849 165.881 3.89453L165.295 2.72266C165.608 2.80078 165.966 2.8724 166.369 2.9375C166.786 3.0026 167.196 3.03516 167.6 3.03516C167.925 3.03516 168.362 3.01562 168.908 2.97656C169.468 2.92448 170.061 2.85938 170.686 2.78125L170.412 3.71875ZM175.94 8.79688C175.145 8.82292 174.41 8.86849 173.733 8.93359C173.056 8.98568 172.457 9.0638 171.936 9.16797L171.408 8.03516C171.669 8.08724 172.014 8.1263 172.444 8.15234C172.873 8.17839 173.283 8.1849 173.674 8.17188C174.026 8.15885 174.403 8.15234 174.807 8.15234C175.224 8.15234 175.601 8.14583 175.94 8.13281V3.875C175.94 3.43229 175.738 3.08073 175.334 2.82031C174.944 2.54688 174.332 2.3125 173.498 2.11719L173.713 1.58984C174.377 1.66797 175.035 1.77214 175.686 1.90234C176.35 2.01953 176.942 2.13021 177.463 2.23438C177.411 2.46875 177.359 2.73568 177.307 3.03516C177.268 3.33464 177.248 3.61458 177.248 3.875V10.3398C177.248 10.5742 177.235 10.8477 177.209 11.1602C177.196 11.4596 177.17 11.7656 177.131 12.0781C177.105 12.3776 177.073 12.6641 177.033 12.9375C177.007 13.1979 176.975 13.4128 176.936 13.582L176.076 13.6992C176.037 13.4128 176.005 13.0482 175.979 12.6055C175.953 12.1628 175.94 11.7591 175.94 11.3945V8.79688Z" fill="#EFEFEF"/>
<defs>
<clipPath id="clip0_44_49">
<rect width="89.78" height="67" fill="white" transform="translate(0.549805 4.17188)"/>
</clipPath>
</defs>
</svg>
