<svg width="34" height="30" viewBox="0 0 34 30" fill="none" xmlns="http://www.w3.org/2000/svg">
<g clip-path="url(#clip0_105_526)">
<path d="M24.8241 20.6852C24.2827 20.7267 23.7365 20.6949 23.1926 20.6963C22.6488 20.6977 22.1038 20.7171 21.5612 20.6894C21.214 20.6728 21.0453 20.7586 21.0659 21.2111C21.0987 21.8975 21.0962 22.5894 21.0708 23.2772C21.0562 23.691 21.2104 23.7781 21.5345 23.774C22.6427 23.7588 23.751 23.7505 24.8581 23.7795C25.2745 23.7906 25.3716 23.6093 25.3509 23.1748C25.3218 22.5562 25.3194 21.9335 25.3509 21.3149C25.3752 20.8485 25.266 20.652 24.8241 20.6852ZM23.1841 22.8219C22.8588 22.7998 22.6682 22.5686 22.6852 22.1909C22.701 21.8463 22.8928 21.6359 23.1926 21.6387C23.5168 21.6415 23.7085 21.8518 23.7304 22.267C23.6831 22.5936 23.524 22.844 23.1841 22.8219Z" fill="#2AAEAE"/>
<path d="M15.4893 20.6881C14.3385 20.7047 13.1865 20.7019 12.0345 20.6909C11.7651 20.6881 11.6242 20.7517 11.634 21.1074C11.6534 21.8436 11.6558 22.5812 11.6352 23.3188C11.6242 23.709 11.7857 23.7796 12.0758 23.7713C12.6209 23.7561 13.1671 23.7672 13.7121 23.7672C13.7121 23.7685 13.7121 23.7699 13.7121 23.7713C14.2985 23.7713 14.8836 23.7589 15.4699 23.7768C15.7746 23.7865 15.9105 23.68 15.9008 23.3077C15.8826 22.5937 15.8838 21.8796 15.9044 21.1655C15.9154 20.8043 15.8061 20.6839 15.4893 20.6881ZM13.7364 22.822C13.4087 22.7971 13.2278 22.5397 13.2472 22.1716C13.2654 21.8256 13.4827 21.6277 13.7741 21.6333C14.1006 21.6402 14.2657 21.8907 14.3106 22.2186C14.2511 22.6213 14.0654 22.8483 13.7364 22.822Z" fill="#2AAEAE"/>
<path d="M29.6676 20.6893C29.1019 20.7073 28.5362 20.6948 27.9694 20.6948C27.3624 20.6962 26.7567 20.7059 26.1509 20.6907C25.8924 20.6838 25.7928 20.7779 25.7989 21.0837C25.8135 21.8434 25.8098 22.6046 25.8001 23.3643C25.7965 23.6549 25.8851 23.7739 26.1497 23.7711C27.3223 23.7615 28.4938 23.7601 29.6664 23.7753C29.9589 23.7795 30.0609 23.6563 30.056 23.3339C30.0451 22.5963 30.0427 21.8587 30.0573 21.1225C30.0645 20.7876 29.9529 20.6796 29.6676 20.6893ZM27.922 22.8274C27.5955 22.8011 27.4037 22.5893 27.4025 22.2157C27.4012 21.867 27.5967 21.6649 27.8953 21.6456C28.2316 21.622 28.444 21.8393 28.4525 22.2102C28.4622 22.5755 28.2655 22.7969 27.922 22.8274Z" fill="#2AAEAE"/>
<path d="M20.1798 20.6922C19.6141 20.7088 19.0472 20.6977 18.4815 20.6977C17.9159 20.6977 17.349 20.7129 16.7833 20.6922C16.4859 20.6811 16.3414 20.7558 16.3548 21.1419C16.3779 21.856 16.373 22.5715 16.356 23.2855C16.3475 23.6301 16.4288 23.7796 16.7602 23.7754C17.9122 23.7574 19.0654 23.7629 20.2174 23.774C20.4917 23.7768 20.6253 23.6924 20.618 23.3492C20.6034 22.6116 20.5974 21.8726 20.6204 21.1364C20.6326 20.7365 20.4663 20.6825 20.1798 20.6922ZM18.5167 22.8192C18.1926 22.8275 17.9766 22.624 17.9608 22.2393C17.9438 21.838 18.1853 21.6844 18.484 21.6138C18.8032 21.6761 19.0229 21.856 19.0132 22.2462C19.0047 22.5922 18.819 22.8122 18.5167 22.8192Z" fill="#2AAEAE"/>
<path d="M10.7939 23.7767C11.0744 23.785 11.1897 23.6881 11.1812 23.349C11.1642 22.5921 11.1666 21.8337 11.1812 21.0754C11.1872 20.7709 11.0865 20.6865 10.8291 20.6893C9.66138 20.7017 8.4924 20.7045 7.32463 20.6879C6.99809 20.6824 6.90948 20.8263 6.91919 21.1736C6.9374 21.8614 6.94711 22.5533 6.91798 23.2397C6.89855 23.6839 7.05636 23.7919 7.41082 23.7739C7.95343 23.7476 8.49847 23.767 9.04229 23.767C9.04229 23.7684 9.04229 23.7697 9.04229 23.7697C9.62618 23.7711 10.2101 23.76 10.7939 23.7767ZM8.5191 22.2129C8.5191 21.8683 8.71454 21.6511 9.01437 21.6386C9.33484 21.6262 9.56427 21.8116 9.57276 22.2046C9.58126 22.5907 9.36883 22.7775 9.04593 22.8343C8.72547 22.7886 8.52032 22.5865 8.5191 22.2129Z" fill="#2AAEAE"/>
<path d="M2.60259 23.7752C3.16583 23.7573 3.7303 23.7697 4.29354 23.7697C4.85679 23.7697 5.42125 23.7559 5.9845 23.7752C6.30133 23.7863 6.47127 23.7074 6.45792 23.2881C6.43485 22.5768 6.4385 21.8641 6.46035 21.1528C6.47249 20.7806 6.34503 20.6837 6.04034 20.6879C4.89321 20.7031 3.74486 20.7031 2.59652 20.6879C2.2809 20.6837 2.17651 20.8055 2.18622 21.1639C2.20686 21.8752 2.20928 22.5879 2.18622 23.2992C2.17651 23.6673 2.29183 23.7849 2.60259 23.7752ZM4.36516 21.633C4.6565 21.651 4.84708 21.8641 4.85315 22.2156C4.85922 22.6073 4.65286 22.7872 4.33846 22.8315C4.00464 22.7844 3.79342 22.5796 3.80434 22.206C3.8177 21.8351 4.04105 21.6123 4.36516 21.633Z" fill="#2AAEAE"/>
<path d="M30.1288 26.3757C29.046 24.7857 27.7375 24.1325 26.0149 24.4369C25.5355 24.5213 25.0341 24.3553 24.6093 24.5034C25.5027 26.3231 26.8525 27.0427 28.6357 26.6885C28.8118 26.6539 28.9987 26.6815 29.1796 26.6843C29.2985 26.6857 29.3981 26.694 29.5013 26.813C30.0912 27.4994 30.72 28.1443 31.2869 28.8542C31.6474 29.3067 32.0249 29.5323 32.7508 29.3122C31.8101 28.2771 30.8487 27.433 30.1288 26.3757Z" fill="#2AAEAE"/>
<path d="M19.1516 24.448C17.9305 24.4494 16.7093 24.4494 15.357 24.4494C16.4361 25.7294 17.2725 27.152 19.0181 26.6968C19.3252 26.6165 19.6615 26.6815 19.9844 26.6885C20.1361 26.6926 20.2721 26.6677 20.4153 26.8365C21.0174 27.5409 21.6741 28.1858 22.258 28.9082C22.6112 29.3455 22.9742 29.5267 23.6127 29.1531C22.2471 27.6558 20.8802 26.1584 19.5146 24.6597C19.4114 24.5463 19.3082 24.448 19.1516 24.448Z" fill="#2AAEAE"/>
<path d="M10.113 24.4409C8.87236 24.4409 7.63176 24.4409 6.25763 24.4409C6.45549 24.6776 6.56232 24.7758 6.63879 24.9004C7.55407 26.3921 8.78132 27.0343 10.3715 26.6841C11.021 26.5416 11.4737 26.8654 11.8852 27.412C12.2919 27.9531 12.7932 28.4015 13.1987 28.9426C13.5313 29.3868 13.8991 29.5003 14.3628 29.3633C14.4223 29.2816 14.4818 29.2014 14.5413 29.1197C13.1671 27.6279 11.793 26.1361 10.4176 24.6443C10.3302 24.5502 10.2489 24.4409 10.113 24.4409Z" fill="#2AAEAE"/>
<path d="M24.097 24.7068C23.9222 24.5144 23.7462 24.4397 23.5071 24.4425C22.3587 24.4535 21.2092 24.448 20.0608 24.448C20.0183 24.5144 19.9771 24.5822 19.9346 24.6487C20.516 25.2714 21.0999 25.8914 21.6777 26.5169C21.8246 26.676 21.9994 26.6801 22.1839 26.6829C23.0895 26.6968 24.1031 26.4324 24.8703 26.8116C25.6617 27.2032 26.2128 28.2259 26.8696 28.9718C26.8841 28.9884 26.8999 29.0022 26.912 29.0202C27.2119 29.4645 27.5943 29.4728 28.0919 29.2223C26.7967 27.6668 25.442 26.193 24.097 24.7068Z" fill="#2AAEAE"/>
<path d="M14.9515 24.636C14.8447 24.5184 14.7294 24.4451 14.5776 24.4451C13.371 24.4465 12.1656 24.4451 10.8631 24.4451C12.3878 26.6329 12.4764 26.6828 14.7403 26.6841C14.9224 26.6841 15.1057 26.7021 15.2853 26.6814C15.6349 26.6399 15.8959 26.7727 16.1387 27.0702C16.6607 27.711 17.2324 28.2977 17.7398 28.9509C18.0918 29.4048 18.4767 29.4878 19.018 29.2457C17.6973 27.6611 16.3232 26.15 14.9515 24.636Z" fill="#2AAEAE"/>
<path d="M6.84392 25.7155C6.06582 24.726 5.23915 24.2223 4.06532 24.4174C3.51178 24.5102 2.93639 24.4327 2.22748 24.4327C2.43627 24.6901 2.52488 24.7814 2.59407 24.8879C3.50814 26.3202 4.69169 27.0288 6.27339 26.6856C6.58051 26.6191 6.80508 26.7769 7.0163 27.0288C7.55891 27.6778 8.14886 28.2784 8.66355 28.9551C9.00466 29.4021 9.3749 29.4837 9.83011 29.3716C9.87623 29.3024 9.92236 29.2332 9.96849 29.1654C8.91968 28.0224 7.80897 26.943 6.84392 25.7155Z" fill="#2AAEAE"/>
<path d="M8.31638 12.3267C9.35912 12.4028 10.4128 12.4803 11.4325 12.7224C12.3817 12.948 12.4995 12.9356 12.497 11.8603C12.4946 10.976 12.4958 10.9733 11.7019 10.839C10.8656 10.6979 10.0268 10.5664 9.19039 10.4252C8.0384 10.2301 8.05782 10.2329 7.79562 11.5337C7.6803 12.0956 7.78955 12.2879 8.31638 12.3267Z" fill="#2AAEAE"/>
<path d="M33.8045 21.7465C33.6079 21.6787 33.5326 21.9098 33.4561 22.0565C33.0143 22.8979 32.3321 23.3989 31.6135 23.8957C30.8353 24.4326 30.005 24.5115 29.1298 24.4589C29.0934 24.5309 29.057 24.6028 29.0218 24.6734C29.5073 25.1771 30.0099 25.6587 30.47 26.1901C30.7261 26.4862 30.9215 26.4904 31.1886 26.2441C31.7385 25.7376 32.2762 25.2089 32.8626 24.7633C33.6601 24.1586 33.8276 23.2245 33.9842 22.2696C34.017 22.0607 34.0206 21.8213 33.8045 21.7465Z" fill="#2AAEAE"/>
<path d="M8.58827 9.88416C9.64679 10.0405 10.7004 10.2287 11.7565 10.4059C12.4958 10.5304 12.4958 10.5318 12.4958 9.54789C12.6403 8.97082 12.3586 8.73141 11.7869 8.647C11.0901 8.54459 10.4079 8.32871 9.71719 8.17095C8.49844 7.89418 8.51787 7.90249 8.21075 9.29049C8.11 9.74578 8.23988 9.83158 8.58827 9.88416Z" fill="#2AAEAE"/>
<path d="M9.36395 3.23899C10.2719 3.55866 11.1739 3.89632 12.0734 4.24644C12.3963 4.37237 12.5092 4.2838 12.5031 3.8894C12.4873 2.87504 12.497 1.86067 12.4934 0.846311C12.4934 0.69132 12.5262 0.511419 12.1935 0.418701C12.1935 0.93211 12.1681 1.42199 12.2008 1.90773C12.2372 2.45573 12.128 2.61349 11.6388 2.37408C10.8061 1.96723 9.95027 1.62404 8.99979 1.20888C8.99979 1.76934 9.01435 2.20664 8.99493 2.64255C8.97915 2.96776 9.0799 3.13935 9.36395 3.23899Z" fill="#2AAEAE"/>
<path d="M17.1098 6.15758C18.138 6.24891 19.1686 6.33748 20.1871 6.51184C20.7345 6.60594 21.0247 6.55751 20.8608 5.813C21.0332 5.12661 20.7345 4.89689 20.1591 4.8443C19.3944 4.77511 18.6357 4.62704 17.8722 4.52048C16.8003 4.37102 16.8209 4.37794 16.6898 5.56529C16.6413 6.00397 16.7432 6.12436 17.1098 6.15758Z" fill="#2AAEAE"/>
<path d="M16.6158 10.222C17.2822 10.1998 17.9499 10.2151 18.6163 10.2151C18.6163 10.2358 18.6163 10.2552 18.6163 10.2759C19.182 10.305 19.7476 10.3438 20.3133 10.359C20.5658 10.3659 20.9421 10.532 20.8802 9.96319C20.8377 9.57018 21.1145 9.00557 20.408 8.95852C19.3993 8.89209 18.3966 8.72603 17.3891 8.63885C16.1994 8.53644 16.4774 8.29012 16.2298 9.68781C16.1618 10.0808 16.2516 10.2344 16.6158 10.222Z" fill="#2AAEAE"/>
<path d="M22.0443 12.9246C21.282 12.8305 21.282 12.8277 21.2844 13.777C21.4095 13.9846 21.0392 14.5174 21.6559 14.5769C22.8176 14.6876 23.9769 14.8343 25.1361 14.9824C25.4262 15.0197 25.5039 14.9146 25.4311 14.6046C25.3838 14.4053 25.3376 14.2019 25.3291 13.9971C25.3073 13.474 25.1046 13.2526 24.6239 13.2221C23.7632 13.1668 22.9038 13.0312 22.0443 12.9246Z" fill="#2AAEAE"/>
<path d="M16.9083 8.16417C17.9936 8.24029 19.08 8.34269 20.1579 8.50875C20.7127 8.59455 21.0526 8.57518 20.8826 7.89294C20.8814 7.07232 20.8839 7.05294 20.2502 6.96438C19.3301 6.83706 18.4075 6.7305 17.4849 6.63502C16.5855 6.5423 16.6012 6.55614 16.4908 7.57742C16.4459 7.99119 16.5138 8.1365 16.9083 8.16417Z" fill="#2AAEAE"/>
<path d="M9.11511 7.59532C10.0097 7.77522 10.8983 7.9994 11.7881 8.20836C12.4982 8.37443 12.4982 8.37581 12.4982 7.45416C12.6305 6.92553 12.3829 6.67229 11.8682 6.55881C11.2746 6.42873 10.6956 6.21146 10.1117 6.02326C8.9488 5.651 8.96216 5.651 8.76186 6.99472C8.7036 7.3739 8.76793 7.52612 9.11511 7.59532Z" fill="#2AAEAE"/>
<path d="M17.2312 4.00282C18.3346 4.13566 19.4344 4.30865 20.5354 4.46641C20.6532 4.53975 20.7782 4.65046 20.8474 4.40552C20.9032 3.90318 20.8923 3.40084 20.8474 2.8985C20.8583 2.34773 20.8729 1.79557 20.8789 1.2448C20.8802 1.11748 20.9105 0.933432 20.7272 0.94727C20.5561 0.961109 20.5961 1.14378 20.5925 1.26832C20.5791 1.79834 20.5743 2.32835 20.5658 2.85837C20.2987 2.83623 20.0329 2.81409 19.7658 2.79194C19.6566 2.69784 19.5376 2.67847 19.4077 2.73106C19.2948 2.63972 19.1698 2.62173 19.0375 2.65356C18.927 2.56638 18.808 2.54285 18.6794 2.5899C18.5677 2.4958 18.4427 2.48473 18.3103 2.50964C18.2011 2.41969 18.0809 2.39201 17.951 2.43768C16.8852 2.09587 16.8852 2.09587 16.8512 3.29567C16.8488 3.36486 16.8537 3.43544 16.8427 3.50324C16.7845 3.86166 16.9229 3.96545 17.2312 4.00282Z" fill="#2AAEAE"/>
<path d="M9.61158 5.42679C10.4188 5.62883 11.2066 5.92359 12.0066 6.16576C12.1474 6.20866 12.3125 6.34428 12.4509 6.15608C12.69 5.83087 12.4254 4.80405 12.0673 4.66982C11.3013 4.38336 10.5329 4.10382 9.76453 3.82013C9.00584 3.5406 9.00584 3.53921 8.97428 4.50652C8.78491 5.08221 9.08475 5.29532 9.61158 5.42679Z" fill="#2AAEAE"/>
<path d="M24.5 11.2902C23.6018 11.1629 22.7023 11.0453 21.7081 10.9097C21.3257 10.7699 21.2092 11.0591 21.2929 11.5075C21.3524 11.8299 21.0271 12.3572 21.5952 12.4375C22.6537 12.5869 23.7159 12.7032 24.7756 12.8319C24.8933 12.8457 25.022 12.8858 25.1034 12.7433C25.2939 12.407 24.8557 11.3401 24.5 11.2902Z" fill="#2AAEAE"/>
<path d="M21.7311 4.78481C22.4388 4.96471 23.1502 5.12108 23.8797 5.14046C24.0812 5.14046 24.2876 5.17229 24.483 5.13354C25.0329 5.02837 24.7634 4.48036 24.8678 4.13578C24.9479 3.87146 24.8132 3.76352 24.5838 3.76491C23.6054 3.77044 22.6707 3.49506 21.7396 3.19199C21.6134 3.15048 21.4725 3.05084 21.3451 3.2003C21.072 3.52135 21.3512 4.68794 21.7311 4.78481Z" fill="#2AAEAE"/>
<path d="M21.6911 6.72896C22.4085 6.84382 23.1295 6.93654 23.5568 6.99743C24.7282 7.0597 24.7319 7.04448 24.7343 6.00382C24.7355 5.69384 24.6943 5.52916 24.375 5.56376C23.5216 5.65648 22.6925 5.4572 21.8598 5.269C21.6862 5.23025 21.3961 4.88429 21.2868 5.38801C21.1315 6.109 21.2929 6.6653 21.6911 6.72896Z" fill="#2AAEAE"/>
<path d="M21.6207 10.475C22.4412 10.5913 23.2655 10.684 24.0885 10.7864C24.8715 10.8847 24.8678 10.8847 24.7622 9.96578C24.7282 9.67241 24.7683 9.38318 24.3604 9.36381C23.4731 9.32368 22.5893 9.22127 21.8027 9.15346C21.4434 9.06628 21.2237 9.12717 21.2917 9.48835C21.356 9.83155 21.004 10.3879 21.6207 10.475Z" fill="#2AAEAE"/>
<path d="M24.2123 7.45281C23.4658 7.46527 22.7217 7.36701 21.9897 7.20787C21.4811 7.09716 21.1351 7.13314 21.3051 7.87904C21.1497 8.55159 21.4495 8.70935 21.9715 8.72734C22.695 8.75225 23.4172 8.8505 24.1395 8.91831C24.4224 8.94461 24.772 9.02349 24.6615 8.49209C24.585 8.11983 25.0208 7.43897 24.2123 7.45281Z" fill="#2AAEAE"/>
<path d="M15.0644 9.48009C14.5497 9.37492 14.0375 9.22685 13.541 9.04003C13.0008 8.8366 12.9292 9.06909 12.9001 9.63924C12.8636 10.3478 13.036 10.684 13.6782 10.7519C14.1358 10.8003 14.5971 10.9331 15.0292 11.1117C15.8025 11.4299 15.8535 11.412 15.7988 10.4142C15.9481 9.81083 15.5998 9.58942 15.0644 9.48009Z" fill="#2AAEAE"/>
<path d="M13.615 4.77511C14.0229 4.89135 14.415 5.08094 14.8143 5.23593C15.6701 5.56529 15.6531 5.56529 15.6434 4.53155C15.6398 4.18835 15.5184 4.0472 15.2659 3.93788C14.7027 3.69432 14.1455 3.42724 13.5859 3.17122C12.9219 2.86678 12.9219 2.86678 12.9231 3.8078C12.7592 4.38763 13.1027 4.62842 13.615 4.77511Z" fill="#2AAEAE"/>
<path d="M13.564 8.62076C14.1564 8.73701 14.7342 8.95012 15.3205 9.11065C15.4468 9.14524 15.5876 9.2518 15.709 9.08851C15.9239 8.79928 15.6532 7.75447 15.3266 7.64238C14.7488 7.44449 14.1698 7.25629 13.5883 7.07085C12.9267 6.85912 12.9255 6.86327 12.9207 7.78907C12.7629 8.326 13.0578 8.52251 13.564 8.62076Z" fill="#2AAEAE"/>
<path d="M13.547 6.62672C14.1188 6.76233 14.6723 6.99067 15.2368 7.16504C15.3606 7.20378 15.5038 7.31864 15.6265 7.16365C15.817 6.92286 15.5973 5.98323 15.3157 5.86698C14.7087 5.61651 14.086 5.4117 13.4912 5.13077C12.9789 4.88998 12.8321 5.06712 12.9316 5.66771C12.7859 6.25446 13.0409 6.50632 13.547 6.62672Z" fill="#2AAEAE"/>
<path d="M2.19466 18.7935C2.20559 18.979 2.21651 19.163 2.22744 19.3485C2.22137 19.6349 2.08055 20.0113 2.55033 19.9823C3.59914 20.0542 4.64794 20.0473 5.69796 19.985C5.94317 20.0584 6.18838 20.0598 6.43358 19.9864C6.63388 19.9989 6.83417 20.0238 7.03325 20.0238C10.1542 20.0266 13.2751 20.0293 16.3972 20.0252C17.5638 20.0238 18.7303 20.0003 19.8969 19.9864C20.0608 20.0542 20.2247 20.0556 20.3897 19.9878C21.7408 20.0003 23.0931 20.0182 24.4442 20.0238C26.1193 20.0307 27.7957 20.0279 29.4709 20.0238C29.6882 20.0238 29.9492 20.0584 30.0111 19.7249C30.0718 19.4011 29.8436 19.2931 29.636 19.1893C29.5814 19.163 29.5231 19.145 29.4673 19.1243C29.2925 18.9721 29.0946 18.8835 28.8773 18.853C28.138 18.5597 27.3976 18.2677 26.6583 17.9743C26.6401 17.9743 26.6219 17.9743 26.6037 17.9743C26.6219 17.9743 26.6401 17.9757 26.6583 17.9743C26.6316 17.764 26.7069 17.5329 26.5673 17.335C26.4143 17.4415 26.35 17.5993 26.3075 17.7723C25.794 17.8553 25.3534 17.483 24.8545 17.4747C24.7124 17.364 24.5546 17.328 24.3859 17.3488C24.4126 17.4208 24.4429 17.4706 24.4781 17.501C24.4429 17.4692 24.4126 17.4208 24.3859 17.3488C24.1043 17.2782 23.8226 17.209 23.541 17.1385C23.4827 16.9212 23.4245 16.7039 23.3383 16.3843C23.2145 16.6638 23.1368 16.8382 23.0591 17.0139C22.3453 16.9087 21.6316 16.8049 20.919 16.6998C20.9081 15.6411 20.8656 14.5825 20.8984 13.5252C20.9154 12.9523 20.7539 12.7599 20.2599 12.7599C18.9671 12.7599 17.6755 12.7198 16.3827 12.6825C16.2079 12.6769 15.9056 12.7973 15.9165 12.4403C15.925 12.14 16.1982 12.2562 16.3596 12.259C17.6925 12.2811 19.0253 12.3102 20.357 12.3489C20.6447 12.3572 20.9773 12.4417 20.8765 11.9158C20.8 11.5117 21.2237 10.8239 20.4055 10.8018C19.154 10.7686 17.9013 10.7312 16.6522 10.6454C16.2091 10.615 16.0234 10.7755 15.9906 11.2599C15.9639 11.6612 15.8194 11.8203 15.4286 11.6653C14.9551 11.4771 14.455 11.3733 13.9646 11.2419C12.9036 10.9568 12.9243 10.9596 12.9121 12.2133C12.9073 12.7918 13.11 12.9952 13.5919 12.9634C14.2074 12.9232 14.7755 13.2097 15.3679 13.3356C15.4941 13.3619 15.6046 13.4477 15.5621 13.6193C15.5172 13.7992 15.3861 13.7646 15.2635 13.7356C14.8167 13.629 14.3725 13.4892 13.9209 13.427C12.9109 13.2872 12.9267 13.3038 12.9146 14.505C12.9097 14.9547 13.0068 15.1512 13.4281 15.2107C14.1078 15.3062 14.7828 15.464 15.448 15.655C15.9432 15.7975 16.1205 15.6633 16.0258 15.0765C15.9784 14.7831 15.9275 14.4981 16.3742 14.5133C17.6451 14.5548 18.9185 14.5465 20.1895 14.5437C20.4529 14.5437 20.6714 14.6074 20.584 14.952C20.4468 15.4972 20.9287 16.167 20.3242 16.6043C20.2878 16.6306 20.2101 16.5863 20.1518 16.5725C20.1154 16.3843 20.1822 16.1061 19.9916 16.0466C19.8556 16.0051 19.8605 16.2611 19.8277 16.3981C19.6116 16.6984 19.3009 16.4479 19.0532 16.5711C18.8942 16.4742 18.7291 16.4701 18.5592 16.5323C17.9583 16.4908 17.3586 16.4493 16.7578 16.4078C16.7189 16.203 16.6825 15.9968 16.5259 15.7961C16.464 16.0245 16.413 16.214 16.362 16.4036C15.3424 16.4521 14.3215 16.4991 13.3018 16.5475C13.2193 16.3483 13.1367 16.1476 13.0299 15.8916C12.9219 16.1601 12.832 16.3801 12.7434 16.6001C12.6645 16.5863 12.5856 16.5738 12.5055 16.56C12.5018 15.6162 12.4909 14.6724 12.4982 13.73C12.5006 13.3854 12.4533 13.1862 12.0818 13.1557C11.0585 13.0713 10.0376 12.9315 9.01554 12.8181C7.5006 12.6506 7.51395 12.6534 7.3695 14.3957C7.33551 14.8136 7.44597 14.8952 7.78465 14.9008C8.87473 14.9201 9.96359 14.9727 11.0525 15.0239C12.3562 15.0862 12.3562 15.0904 12.1425 16.6237C11.9787 16.6486 11.8148 16.6721 11.6497 16.697C11.4433 16.6403 11.2443 16.6735 11.05 16.7648C10.84 16.7316 10.6337 16.7344 10.4358 16.834C10.0801 16.8645 9.78272 16.769 9.61278 16.1061C9.53873 16.7316 9.33479 16.9724 8.98277 17.0264C8.81161 17.0042 8.64773 17.025 8.49478 17.1218C8.36732 17.072 8.24836 17.0886 8.13789 17.18C8.01408 17.2076 7.89026 17.2353 7.76644 17.263C7.67783 17.2187 7.59892 17.2381 7.52973 17.3128C7.40591 17.3446 7.28331 17.3751 7.15949 17.4069C7.03325 17.3682 6.91671 17.3806 6.8196 17.4927C6.74556 17.5052 6.67151 17.5176 6.59746 17.5315C6.48335 17.3792 6.36925 17.2256 6.22237 17.0291C6.12647 17.3322 6.1556 17.6782 5.84485 17.7681C5.369 17.7446 4.98298 18.2137 4.49014 18.0933C4.31898 17.5467 4.14903 17.0015 3.97787 16.4548C3.95845 16.3621 3.93903 16.2694 3.91839 16.1753C3.90868 15.8847 3.85527 15.6065 3.73509 15.3477C3.72296 15.2536 3.7096 15.1609 3.69746 15.0668C3.57972 14.1576 3.67804 13.4021 4.62245 13.1322C5.00726 13.0229 4.99633 12.6174 4.97691 12.1248C4.67708 12.5178 4.30441 12.6271 4.00579 12.8817C3.92082 12.9108 3.83463 12.9398 3.74966 12.9689C3.61128 12.6492 2.48964 12.0666 2.18859 12.1552C2.08177 12.187 1.99315 12.2452 1.99315 12.3752C1.98951 12.9786 1.67026 12.6852 1.47603 12.587C1.30002 12.497 1.16649 12.3033 1.00747 12.1663C0.646944 11.8549 0.432084 12.3019 0.152888 12.3974C-0.0850352 12.479 0.06306 12.7157 0.0909796 12.8665C0.157744 13.236 0.396881 13.2194 0.680933 13.2263C1.12522 13.2374 1.61685 13.1917 1.94581 13.6733C1.82685 14.0746 1.51852 14.0179 1.25268 14.0276C0.960129 14.0386 0.665152 14.0068 0.37139 13.9943C-0.121452 14.0954 -0.0813935 14.3389 0.233005 14.6586C0.441795 14.9976 0.763478 14.9215 1.05117 14.9284C1.88148 14.9478 1.88148 14.9381 1.98587 15.8861C1.95188 16.2611 2.00287 16.6264 2.07206 16.9918C2.08055 17.1772 2.08905 17.3626 2.09755 17.5481C2.0672 17.9701 2.11333 18.3839 2.19466 18.7935ZM23.2642 17.2547C23.2448 17.2464 23.2266 17.2326 23.2084 17.2173C23.2254 17.2326 23.2448 17.2464 23.2642 17.2547ZM12.8903 16.679C12.9024 16.6804 12.9134 16.679 12.9255 16.6776C12.9134 16.6804 12.9024 16.6804 12.8903 16.679Z" fill="#2AAEAE"/>
</g>
<defs>
<clipPath id="clip0_105_526">
<rect width="34" height="29" fill="white" transform="translate(0 0.417236)"/>
</clipPath>
</defs>
</svg>
