<svg width="33" height="30" viewBox="0 0 33 30" fill="none" xmlns="http://www.w3.org/2000/svg">
<path d="M0.941406 18.4346C0.941406 15.2251 3.54324 12.6233 6.75276 12.6233H8.28207V24.246H6.75276C3.54324 24.246 0.941406 21.6442 0.941406 18.4346V18.4346Z" fill="#2AAEAE"/>
<path d="M27.3219 23.6726V23.6726C27.3219 25.3407 25.9697 26.693 24.3015 26.693H19.9813" stroke="#2AAEAE" stroke-width="3"/>
<path d="M32.7509 18.4345C32.7509 21.644 30.1491 24.2458 26.9396 24.2458L25.4103 24.2458L25.4103 12.6231L26.9396 12.6231C30.1491 12.6231 32.7509 15.225 32.7509 18.4345V18.4345Z" fill="#2AAEAE"/>
<rect x="14.0743" y="25.5267" width="6.30838" height="2.33219" rx="1.16609" stroke="#2AAEAE" stroke-width="2.33219"/>
<path d="M28.4689 13.7892C28.4689 7.40187 23.2909 2.22388 16.9035 2.22388C10.5161 2.22388 5.33813 7.40187 5.33813 13.7892" stroke="#2AAEAE" stroke-width="3"/>
</svg>
