<svg width="13" height="14" viewBox="0 0 13 14" fill="none" xmlns="http://www.w3.org/2000/svg">
<path fill-rule="evenodd" clip-rule="evenodd" d="M6.36529 12.7853C9.55364 12.7853 12.1383 10.2006 12.1383 7.01226C12.1383 3.8239 9.55364 1.23923 6.36529 1.23923C3.17693 1.23923 0.59226 3.8239 0.59226 7.01226C0.59226 10.2006 3.17693 12.7853 6.36529 12.7853ZM6.36529 13.1461C9.75292 13.1461 12.4991 10.3999 12.4991 7.01226C12.4991 3.62463 9.75292 0.878418 6.36529 0.878418C2.97766 0.878418 0.231445 3.62463 0.231445 7.01226C0.231445 10.3999 2.97766 13.1461 6.36529 13.1461Z" fill="#061422"/>
<path d="M7.74779 6.95452C7.47357 7.06998 7.19575 7.14575 6.91431 7.18183C6.63288 7.21791 6.35144 7.24678 6.07 7.26843C5.57208 7.30451 5.1824 7.41636 4.90097 7.60398C4.62675 7.79161 4.48964 8.07665 4.48964 8.45911C4.48964 8.63231 4.52211 8.78385 4.58706 8.91374C4.65922 9.03642 4.74942 9.14105 4.85767 9.22765C4.97313 9.30703 5.10302 9.36837 5.24735 9.41166C5.39889 9.44774 5.55043 9.46579 5.70197 9.46579C5.96176 9.46579 6.21433 9.43331 6.45968 9.36837C6.70504 9.30342 6.92153 9.206 7.10915 9.07611C7.30399 8.939 7.45914 8.76941 7.5746 8.56736C7.69006 8.35809 7.74779 8.11273 7.74779 7.8313V6.95452ZM6.65452 6.62979C6.7772 6.61535 6.92153 6.5937 7.0875 6.56484C7.26069 6.53597 7.40141 6.49628 7.50965 6.44577C7.6179 6.39526 7.68284 6.31227 7.70449 6.19681C7.73336 6.07413 7.74779 5.96228 7.74779 5.86125C7.74779 5.5293 7.63955 5.25869 7.42306 5.04942C7.21379 4.83293 6.85658 4.72469 6.35144 4.72469C6.12774 4.72469 5.92207 4.74634 5.73445 4.78963C5.54682 4.82571 5.38085 4.89427 5.23652 4.9953C5.09941 5.08911 4.98395 5.219 4.89014 5.38498C4.80355 5.54373 4.74582 5.74579 4.71695 5.99114H4.05666C4.07831 5.65919 4.15408 5.37776 4.28397 5.14684C4.41387 4.9087 4.57984 4.71747 4.7819 4.57314C4.99117 4.4216 5.22931 4.31336 5.49631 4.24841C5.77053 4.17625 6.05918 4.14017 6.36226 4.14017C6.6437 4.14017 6.90709 4.17264 7.15245 4.23759C7.40502 4.29532 7.62151 4.39274 7.80191 4.52985C7.98954 4.65974 8.13386 4.83654 8.23489 5.06024C8.34314 5.28395 8.39726 5.55817 8.39726 5.8829V8.93539C8.39726 9.18796 8.44056 9.35033 8.52715 9.42249C8.62096 9.48743 8.80498 9.46939 9.0792 9.36837V9.87711C9.02868 9.89155 8.95291 9.9132 8.85188 9.94206C8.75807 9.97093 8.66426 9.98536 8.57045 9.98536C8.46942 9.98536 8.372 9.97453 8.27819 9.95289C8.16994 9.93845 8.08335 9.90598 8.0184 9.85546C7.95346 9.79773 7.89933 9.73279 7.85604 9.66063C7.81995 9.58125 7.7947 9.49826 7.78026 9.41166C7.76583 9.31785 7.75862 9.22043 7.75862 9.1194C7.4844 9.42249 7.17049 9.65341 6.81689 9.81217C6.46329 9.97093 6.08083 10.0503 5.6695 10.0503C5.42415 10.0503 5.18601 10.0178 4.95509 9.95289C4.73138 9.88794 4.53294 9.78691 4.35975 9.6498C4.18655 9.51269 4.04944 9.34672 3.94842 9.15188C3.84739 8.94982 3.79688 8.71168 3.79688 8.43747C3.79688 7.48492 4.44995 6.92205 5.7561 6.74885L6.65452 6.62979Z" fill="#061422"/>
</svg>
