<svg width="79" height="71" viewBox="0 0 79 71" fill="none" xmlns="http://www.w3.org/2000/svg">
<path d="M78.9064 0.874219C75.4733 3.5113 71.672 5.52825 67.6491 6.84738C65.4899 4.14388 62.6203 2.22771 59.4285 1.35803C56.2366 0.488346 52.8765 0.707109 49.8025 1.98473C46.7286 3.26236 44.0891 5.53719 42.2411 8.50158C40.3931 11.466 39.4257 14.9769 39.4698 18.5595V22.4635C33.1694 22.6414 26.9264 21.1198 21.2967 18.0342C15.6671 14.9485 10.8256 10.3947 7.2035 4.77825C7.2035 4.77825 -7.13709 39.9145 25.1292 55.5306C17.7457 60.9883 8.95003 63.7249 0.0332031 63.3387C32.2995 82.8588 71.7362 63.3387 71.7362 18.4423C71.7329 17.3549 71.6368 16.2701 71.4493 15.202C75.1084 11.2726 77.6905 6.31141 78.9064 0.874219Z" fill="#2AAEAE"/>
</svg>
